<svg id="로고" xmlns="http://www.w3.org/2000/svg" xmlns:xlink="http://www.w3.org/1999/xlink" width="260.723" height="52.994" viewBox="0 0 260.723 52.994">
  <defs>
    <clipPath id="clip-path">
      <rect id="사각형_22" data-name="사각형 22" width="52.994" height="52.994" transform="translate(0 0)" fill="#cecece"/>
    </clipPath>
    <clipPath id="clip-path-2">
      <rect id="사각형_26" data-name="사각형 26" width="195.833" height="25.852" transform="translate(0 0)" fill="#cecece"/>
    </clipPath>
    <clipPath id="clip-path-3">
      <rect id="사각형_27" data-name="사각형 27" width="194.464" height="9.758" transform="translate(0 0)" fill="#cecece"/>
    </clipPath>
  </defs>
  <g id="심볼_1" data-name="심볼 1">
    <g id="그룹_32" data-name="그룹 32" transform="translate(0 0)" clip-path="url(#clip-path)">
      <path id="패스_165" data-name="패스 165" d="M71.984,98.812l.11-.04c-.076-.172-.141-.342-.206-.519-.057-.155-.1-.307-.153-.466l-.109.041c.078.214.072.368-.107.434l-.51.186L70.6,97.324l.584-.214c.288-.106.422.079.552.367l.1-.074c-.078-.185-.186-.467-.246-.653-.249.091-.622.247-.927.358s-.693.235-.915.316l.047.129.051-.019c.131-.048.278-.077.359.146l.822,2.249c.081.223-.05.295-.18.343l-.051.019.047.129c.146-.052.362-.151.551-.221.209-.075.463-.15.635-.213l-.047-.128-.049.017c-.182.067-.351.125-.439-.116l-.4-1.095.453-.165c.234-.085.358.073.445.314" transform="translate(-37.145 -51.531)" fill="#cecece"/>
      <path id="패스_166" data-name="패스 166" d="M10.015,37.2a.351.351,0,0,1,.249-.2.531.531,0,0,1,.358.029.511.511,0,0,1,.262.239.343.343,0,0,1-.227.521.533.533,0,0,1-.357-.025.5.5,0,0,1-.26-.245.364.364,0,0,1-.027-.317m-.506.074.043.019-.358.839.331.143.176-.415a.887.887,0,0,0,.167.217.783.783,0,0,0,.231.151.8.8,0,0,0,.658-.008.938.938,0,0,0,.5-1.176.8.8,0,0,0-.447-.481.855.855,0,0,0-.271-.063.9.9,0,0,0-.272.03l.181-.421-.333-.142-.364.848c-.063-.029-.213-.092-.447-.193l-.269.632a.541.541,0,0,1,.47.019" transform="translate(-4.815 -19.156)" fill="#cecece"/>
      <path id="패스_167" data-name="패스 167" d="M14.97,38.246a.063.063,0,0,1-.033.034.058.058,0,0,1-.047,0l-.724-.308-.291.682a.655.655,0,0,1,.482-.059l.427.182a.332.332,0,0,0,.261.024.346.346,0,0,0,.171-.2l.8-1.884-.335-.144Z" transform="translate(-7.39 -19.48)" fill="#cecece"/>
      <path id="패스_168" data-name="패스 168" d="M11.049,34.377l2.059.88.193-.448-1.2-.511.209-.486-.336-.143-.208.485-.934-.4-.287.672a.669.669,0,0,1,.5-.05" transform="translate(-5.619 -17.933)" fill="#cecece"/>
      <path id="패스_169" data-name="패스 169" d="M66.253,101.066l-.089.019c.038.174.015.292-.129.322l-.412.09-.2-.91.473-.1c.233-.051.316.105.386.341l.082-.047c-.041-.15-.093-.38-.12-.53-.2.044-.505.125-.753.178s-.558.107-.738.146l.022.1.042-.009c.106-.023.222-.029.261.15l.394,1.821c.039.18-.07.222-.175.246l-.042.009.023.1c.117-.026.294-.079.448-.114s.372-.065.51-.1l-.022-.1-.038.007c-.149.033-.284.059-.326-.136l-.192-.885.367-.08c.189-.041.268.1.309.289l.088-.019c-.039-.141-.072-.279-.1-.422-.026-.124-.047-.247-.068-.374" transform="translate(-34.49 -53.395)" fill="#cecece"/>
      <path id="패스_170" data-name="패스 170" d="M54.189,101.538l0,.106.053,0c.043,0,.172.019.169.093a.548.548,0,0,1-.1.227l-.4.619-.425-.771a.3.3,0,0,1-.05-.119c0-.057.08-.079.161-.075h.04l0-.107c-.144-.006-.29,0-.448,0s-.31-.027-.473-.034l0,.106.029,0c.142.006.2.1.28.253l.564,1-.032.759c-.009.235-.084.288-.263.282l-.056,0-.006.107c.179.007.36,0,.512.007.133.005.314.028.492.034l0-.1-.058,0c-.159-.007-.25-.029-.237-.33l.034-.849.6-.91a.3.3,0,0,1,.243-.153l0-.107c-.093,0-.191,0-.287,0-.115,0-.229-.023-.344-.028" transform="translate(-28.074 -54.049)" fill="#cecece"/>
      <path id="패스_171" data-name="패스 171" d="M61.14,103.609c-.487.056-.8-.521-.873-1.152-.054-.473.04-1.042.565-1.1.5-.057.807.541.866,1.057s.024,1.131-.558,1.2m-.32-2.41a1.207,1.207,0,0,0-.959,1.431,1.164,1.164,0,0,0,1.266,1.139,1.22,1.22,0,0,0,.981-1.483A1.142,1.142,0,0,0,60.82,101.2" transform="translate(-31.878 -53.896)" fill="#cecece"/>
      <path id="패스_172" data-name="패스 172" d="M31.348,12.836a.381.381,0,0,1,.2-.269.388.388,0,0,1,.335-.02.505.505,0,0,1,.274.244.493.493,0,0,1,.054.364.394.394,0,0,1-.2.27.388.388,0,0,1-.333.018.542.542,0,0,1-.328-.607m.147,1a.974.974,0,0,0,1.142-.616.816.816,0,0,0-.574-1.063.973.973,0,0,0-1.143.616.821.821,0,0,0,.575,1.064" transform="translate(-16.444 -6.458)" fill="#cecece"/>
      <path id="패스_173" data-name="패스 173" d="M45.409,7.947l.057.362,1.5-.244.1.6-1.052.172.059.36,2.144-.347a.042.042,0,0,1,.03,0,.04.04,0,0,1,.015.029l.15.923.5-.081L48.7,8.441a.037.037,0,0,0-.014-.028.041.041,0,0,0-.032,0l-1.053.17-.1-.6L49,7.737l-.057-.361-.506.08a.614.614,0,0,0,.07-.233,1.69,1.69,0,0,0-.029-.38L48.369,6.2a.04.04,0,0,0-.015-.033.033.033,0,0,0-.03,0L45.577,6.6l.059.361,2.211-.357a.085.085,0,0,1,.066.005c.014.008.022.029.026.057l.034.208a2.379,2.379,0,0,1,.04.382.675.675,0,0,1-.057.276Z" transform="translate(-24.186 -3.28)" fill="#cecece"/>
      <path id="패스_174" data-name="패스 174" d="M62.21,7.775a.759.759,0,0,1,.251-.449.514.514,0,0,1,.437-.134.491.491,0,0,1,.368.284.79.79,0,0,1,.073.507.777.777,0,0,1-.244.446.5.5,0,0,1-.445.137.492.492,0,0,1-.365-.283.781.781,0,0,1-.075-.508m.385,1.132a1.053,1.053,0,0,0,.721-.12,1.012,1.012,0,0,0,.465-.524l.552.1-.382,2.157.475.085.652-3.677L64.361,6.8a.656.656,0,0,1,.157.5L64.4,8l-.543-.1a1.009,1.009,0,0,0-.242-.686,1.058,1.058,0,0,0-.651-.374,1.047,1.047,0,0,0-.8.17A1.03,1.03,0,0,0,61.9,8.473a1.056,1.056,0,0,0,.7.435" transform="translate(-32.863 -3.621)" fill="#cecece"/>
      <path id="패스_175" data-name="패스 175" d="M76.808,13.38l.6.34c.139.077.256.136.348.177a1.051,1.051,0,0,0,.263.077l-.585,1.041.4.226,1.074-1.912.268.151-1.073,1.911.4.227,1.829-3.257-.585-.328a.606.606,0,0,1-.024.469l-.371.659-.268-.15.575-1.026-.584-.327a.6.6,0,0,1-.024.466l-.86,1.531a.868.868,0,0,1-.2-.048,1.747,1.747,0,0,1-.266-.127l-.676-.38a.069.069,0,0,1-.039-.045.078.078,0,0,1,.01-.063l.745-1.324.831.467.178-.319-1.472-.827a.73.73,0,0,1-.02.533l-.662,1.18a.517.517,0,0,0-.08.392.5.5,0,0,0,.259.286" transform="translate(-40.765 -5.853)" fill="#cecece"/>
      <path id="패스_176" data-name="패스 176" d="M6.533,55.483l0-.054c0-.139.028-.287.265-.283l2.39.043c.237.005.257.151.254.292v.055H9.58c0-.155-.011-.389-.007-.587s.026-.459.029-.629l-.137,0v.074c0,.141-.019.3-.265.3l-1-.018.026-1.413,1,.019c.247,0,.257.166.254.307v.075l.136,0c0-.172-.009-.422-.007-.631s.026-.432.029-.589H9.5V52.5c0,.14-.028.287-.266.284l-2.389-.043c-.237,0-.257-.152-.255-.294v-.053l-.136,0c0,.156.011.388.008.588s-.027.459-.03.629l.137,0v-.073c0-.14.019-.3.266-.3l1.135.02-.025,1.413-1.136-.021c-.246,0-.257-.167-.253-.308v-.072l-.137,0c0,.172.01.42.007.63s-.026.432-.029.588Z" transform="translate(-3.407 -27.902)" fill="#cecece"/>
      <path id="패스_177" data-name="패스 177" d="M49.871,100.978l-1.544-.221c-.08-.012-.155-.019-.164-.128l-.072-.011a2.368,2.368,0,0,1-.061.3c-.024.1-.053.2-.079.294l.09.013c.082-.25.1-.312.324-.28l.49.071-.271,1.879c-.038.278-.126.283-.29.26l-.057-.008-.015.105c.116.018.328.032.508.059.162.022.369.067.486.084l.015-.105-.057-.008c-.143-.021-.243-.068-.2-.338l.268-1.871.491.07c.2.029.185.24.173.37l.1-.026c.014-.095.028-.191.047-.284s.047-.187.074-.28l-.07-.025c-.021.106-.1.1-.178.086" transform="translate(-25.54 -53.591)" fill="#cecece"/>
      <path id="패스_178" data-name="패스 178" d="M19.1,21.011a.1.1,0,0,1,.056-.038.089.089,0,0,1,.055.029l.157.141a2.859,2.859,0,0,1,.27.275.667.667,0,0,1,.127.249l-1.732,1.914.27.246L19.323,22.7l.451.409-.715.79.271.246,1.457-1.611a.047.047,0,0,1,.028-.015.04.04,0,0,1,.029.013l.693.626.339-.377-.962-.871a.037.037,0,0,0-.03-.012.037.037,0,0,0-.027.015l-.716.792-.452-.409L20.7,21.174l-.27-.245-.344.38A.644.644,0,0,0,20,21.084a1.688,1.688,0,0,0-.262-.278l-.483-.439a.066.066,0,0,0-.033-.017.051.051,0,0,0-.029.017l-1.865,2.061.27.245Z" transform="translate(-9.228 -10.838)" fill="#cecece"/>
      <path id="패스_179" data-name="패스 179" d="M9.465,66.244c.412-.094.471.039.5.163l.011.044.1-.023c-.028-.122-.07-.239-.1-.36-.032-.139-.048-.279-.08-.417l-.1.023.014.066c.021.088.018.266-.266.332l-1.3.3-.009-.006,1.434-1.708c-.02-.09-.054-.173-.074-.26-.025-.112-.037-.231-.063-.343l-.1.024.008.038a.3.3,0,0,1-.251.339l-1.455.333c-.276.064-.453.04-.5-.165l-.009-.042-.1.024c.03.132.075.265.1.4s.044.257.074.384l.1-.024-.011-.05c-.051-.227.04-.3.342-.37l1.424-.326L7.52,66.59l.026.112a2.83,2.83,0,0,1,.345-.1Z" transform="translate(-3.793 -34.115)" fill="#cecece"/>
      <path id="패스_180" data-name="패스 180" d="M11.5,72.03a.693.693,0,0,1,.459.356l.012.036.1-.035c-.043-.129-.1-.25-.146-.379s-.072-.247-.115-.37l-.1.036.011.031c.013.037.052.161-.014.185a.55.55,0,0,1-.272-.046l-.993-.326-.689.933a1.722,1.722,0,0,1-.2.237c.033.091.07.178.1.269s.062.2.1.294l.1-.035a.349.349,0,0,1,.094-.324l.826-1.114Z" transform="translate(-5.088 -38.093)" fill="#cecece"/>
      <path id="패스_181" data-name="패스 181" d="M45.373,100.309l-.023.1.04.01c.108.023.215.066.176.246l-.4,1.818c-.041.181-.156.173-.263.15l-.041-.008-.024.1c.116.025.294.051.438.083s.322.087.463.118l.024-.1-.042-.011c-.106-.021-.215-.064-.174-.245l.4-1.818c.04-.181.156-.173.263-.149l.041.009.023-.1c-.137-.031-.318-.055-.466-.089s-.319-.086-.433-.11" transform="translate(-23.879 -53.426)" fill="#cecece"/>
      <path id="패스_182" data-name="패스 182" d="M13.306,79.887l1.584-.976c.169-.1.254.028.3.106l.019.031.091-.056c-.065-.106-.178-.263-.264-.4s-.164-.294-.227-.4l-.09.056.022.036c.057.093.1.2-.055.3l-1.584.975c-.158.1-.233.009-.29-.085l-.022-.036-.09.056c.063.1.17.25.251.382s.175.312.239.417l.091-.056-.018-.031c-.048-.077-.127-.213.042-.317" transform="translate(-6.765 -41.647)" fill="#cecece"/>
      <path id="패스_183" data-name="패스 183" d="M16.635,81.128l.021.033.091-.055c-.07-.115-.153-.222-.224-.337s-.122-.227-.19-.338l-.091.057.018.029c.02.033.085.145.025.183a.537.537,0,0,1-.275.012l-1.039-.105-.475,1.059a1.7,1.7,0,0,1-.144.274c.05.082.106.158.156.241s.1.183.156.267l.091-.055a.349.349,0,0,1,.022-.338l.57-1.264.767.09a.678.678,0,0,1,.523.249" transform="translate(-7.643 -42.839)" fill="#cecece"/>
      <path id="패스_184" data-name="패스 184" d="M9.021,70.63l1.756-.616c.187-.065.242.081.272.168l.012.033.1-.035c-.041-.116-.118-.3-.172-.45s-.1-.321-.137-.436l-.1.035.014.041c.036.1.057.217-.117.277l-1.755.616c-.173.062-.228-.04-.265-.144l-.013-.04-.1.035c.039.114.113.28.164.427s.1.342.145.459l.1-.035-.012-.035c-.029-.086-.079-.236.109-.3" transform="translate(-4.535 -36.908)" fill="#cecece"/>
      <path id="패스_185" data-name="패스 185" d="M8.683,60.707v.007l-.966.39-.064-.563Zm-1.83,1.376a.193.193,0,0,1,.119-.215c.1-.051.228-.1.346-.152L9.1,60.953c.026-.014.058-.025.085-.037a.021.021,0,0,0,.009-.022.067.067,0,0,0-.011-.024A1.458,1.458,0,0,1,9,60.614a3.37,3.37,0,0,1-.451-.062l-1.672-.3a.285.285,0,0,1-.259-.235V60l-.107.012c.019.107.039.215.051.323s.021.245.026.366L6.7,60.69l0-.034c-.012-.1-.008-.227.1-.24a1.668,1.668,0,0,1,.282.035l.377.055.077.683-.4.163a1.3,1.3,0,0,1-.247.09c-.088.009-.116-.106-.123-.175l0-.034-.106.013c.024.152.049.3.066.449s.024.28.032.416l.106-.012Z" transform="translate(-3.468 -31.958)" fill="#cecece"/>
      <path id="패스_186" data-name="패스 186" d="M90.3,26.27a.037.037,0,0,1-.017.029l-.731.643.335.381.975-.858a.08.08,0,0,0,.03-.056.089.089,0,0,0-.021-.059L89.2,24.46l-.275.242,1.354,1.54a.041.041,0,0,1,.013.029" transform="translate(-47.365 -13.028)" fill="#cecece"/>
      <path id="패스_187" data-name="패스 187" d="M13.389,75.625c.23-.11.282-.012.317.064l.028.057.1-.046c-.051-.106-.113-.2-.164-.311s-.092-.228-.144-.337l-.1.045.026.055c.044.093.09.2-.14.308l-1.093.522c-.433.206-.776.176-.948-.186-.186-.391.036-.653.442-.848l1.105-.526c.231-.11.286,0,.338.108l.015.031.1-.046c-.052-.108-.13-.24-.208-.4s-.138-.324-.194-.441l-.1.046.016.032c.05.111.1.214-.135.322l-1.157.552a.783.783,0,0,0-.409,1.2c.193.407.557.635,1.281.29Z" transform="translate(-5.834 -39.239)" fill="#cecece"/>
      <path id="패스_188" data-name="패스 188" d="M38.439,98.858c-.151.392-.351.458-.633.349l-.138-.053.38-.988a1.064,1.064,0,0,1,.166.049.453.453,0,0,1,.225.643m-.061-.716c-.149-.058-.289-.1-.458-.162s-.342-.148-.431-.182l-.039.1.05.021c.087.033.2.086.1.328l-.65,1.685a.191.191,0,0,1-.269.1l-.051-.019-.038.1c.141.054.279.093.413.144.161.062.319.139.48.2l.037-.1-.05-.02c-.129-.05-.227-.1-.129-.354l.273-.709.187.072a10.022,10.022,0,0,0,.171,1.3c.088.035.183.056.271.09s.178.084.272.119l.037-.1a.338.338,0,0,1-.2-.3l-.156-1.035a.662.662,0,0,0,.618-.434c.181-.47-.092-.705-.447-.842" transform="translate(-19.492 -52.089)" fill="#cecece"/>
      <path id="패스_189" data-name="패스 189" d="M42.978,99.874c.2.057.261.3.219.534l.086.005a4.489,4.489,0,0,1,.112-.5c-.087-.04-.323-.148-.4-.171a.659.659,0,0,0-.844.522c-.236.824.672.882.5,1.485a.371.371,0,0,1-.469.286c-.276-.079-.342-.372-.294-.673l-.086,0c-.035.178-.065.354-.1.533a.957.957,0,0,0,.418.287.7.7,0,0,0,.909-.515c.235-.82-.685-.9-.522-1.467.078-.271.252-.394.48-.328" transform="translate(-22.206 -53.11)" fill="#cecece"/>
      <path id="패스_190" data-name="패스 190" d="M33.567,98.55c-.173-.087-.33-.165-.227-.372l.371-.741.324.164c.186.093.133.22.054.42l.09.021c.055-.123.113-.244.174-.366s.126-.245.193-.366l-.081-.042c-.1.165-.192.255-.353.173l-.321-.162.416-.832.375.188c.284.143.233.326.144.538l.093.015c.062-.143.164-.354.238-.488-.184-.093-.471-.221-.7-.335s-.5-.268-.667-.351l-.047.1.037.019c.1.049.193.115.11.281l-.832,1.666c-.083.165-.194.13-.291.08l-.038-.019-.047.1c.153.078.48.226.724.349s.546.29.721.377c.108-.156.224-.308.344-.459l-.064-.061c-.263.322-.418.275-.742.113" transform="translate(-17.355 -51.138)" fill="#cecece"/>
      <path id="패스_191" data-name="패스 191" d="M26.8,94.349l1.1-1.5c.11-.149.212-.095.3-.029l.033.024.064-.085c-.114-.085-.268-.181-.39-.271s-.256-.208-.351-.277L27.5,92.3l.034.026c.088.066.169.148.061.3l-1.106,1.5c-.109.149-.212.095-.3.029l-.034-.025-.062.086c.094.07.246.165.365.252s.259.211.376.3l.063-.086-.034-.025c-.087-.064-.17-.148-.059-.3" transform="translate(-13.895 -49.114)" fill="#cecece"/>
      <path id="패스_192" data-name="패스 192" d="M25,90.361l.033.03.07-.08c-.093-.082-.194-.154-.287-.234s-.2-.2-.309-.291l-.071.08.05.043c.067.059.169.206-.022.426l-.879,1h-.009l.162-2.227c-.069-.059-.143-.107-.212-.167-.086-.075-.166-.164-.251-.24l-.072.08.03.025a.3.3,0,0,1,0,.423l-.985,1.125c-.188.214-.346.3-.5.159l-.032-.028-.07.081c.1.09.217.171.319.261s.186.183.283.268l.07-.08-.038-.034c-.174-.154-.143-.268.061-.5l.963-1.1-.173,2.56.086.077a3.046,3.046,0,0,1,.223-.282L24.5,90.523c.278-.318.4-.245.5-.162" transform="translate(-11.524 -47.245)" fill="#cecece"/>
      <path id="패스_193" data-name="패스 193" d="M32.144,94.731l.026.017.056-.091c-.074-.047-.164-.086-.243-.136-.109-.069-.2-.143-.289-.2l-.056.089.043.028c.088.054.157.114.1.2a.66.66,0,0,1-.139.148l-1.191,1,0,0,.4-1.616a.475.475,0,0,1,.038-.11c.024-.039.091-.061.185,0l.06.037L31.187,94c-.076-.046-.262-.147-.387-.225s-.256-.179-.387-.259l-.057.091.026.016c.113.07.148.134.107.307l-.529,2.293.094.058c.093-.079.2-.152.292-.231.479-.4,1.548-1.272,1.594-1.3.1-.072.157-.049.2-.021" transform="translate(-15.958 -49.81)" fill="#cecece"/>
      <path id="패스_194" data-name="패스 194" d="M21.2,85.072c.247-.215.346-.11.416-.03l.053.061.1-.091c-.1-.114-.211-.213-.309-.327s-.194-.25-.3-.367l-.1.089.052.06c.087.1.18.213-.067.43l-1.171,1.026c-.464.406-.9.487-1.239.1-.365-.419-.183-.821.254-1.2l1.186-1.038c.247-.216.352-.1.455.014l.03.036.1-.09c-.1-.118-.244-.252-.4-.429s-.283-.352-.393-.477l-.1.091.03.034c.1.118.193.23-.054.446l-1.24,1.085a1.006,1.006,0,0,0-.092,1.625c.382.437.91.593,1.688-.086Z" transform="translate(-9.612 -44.121)" fill="#cecece"/>
      <path id="패스_195" data-name="패스 195" d="M34.25,12.6a.659.659,0,0,1-.152.193,1.491,1.491,0,0,1-.313.211l-.461.249-.248-.46-.611.329a.667.667,0,0,1,.43.362l-.938.507.172.322,1.686-.91a3.925,3.925,0,0,0,.4-.242.724.724,0,0,0,.21-.232l.492.916.43-.231-1.773-3.287-.643.347a.685.685,0,0,1,.424.274Z" transform="translate(-17.021 -5.501)" fill="#cecece"/>
      <path id="패스_196" data-name="패스 196" d="M93.191,81.84c-.339-.252-.276-.383-.2-.486l.027-.037-.086-.063c-.074.1-.136.208-.209.308s-.179.216-.265.331l.086.064.04-.053c.054-.073.19-.186.424-.013l1.068.8,0,.008-2.228.021c-.054.072-.1.15-.15.224-.068.092-.149.179-.218.27l.086.064.023-.032a.3.3,0,0,1,.42-.029l1.2.891c.228.169.324.321.2.487l-.024.034.085.064c.081-.11.153-.231.234-.34s.166-.2.244-.306l-.085-.063-.032.04c-.139.186-.255.165-.5-.019l-1.173-.872,2.563-.036L94.785,83a2.6,2.6,0,0,1-.3-.2Z" transform="translate(-48.725 -43.277)" fill="#cecece"/>
      <path id="패스_197" data-name="패스 197" d="M91.694,87.485l-.394-.37a.153.153,0,0,1-.02-.243l.027-.028-.077-.073c-.089.1-.174.207-.267.306s-.212.215-.32.321l.078.073.027-.029c.076-.083.183-.143.289-.045l.421.4a.579.579,0,0,1-.18.291c-.395.422-1.013.168-1.44-.232s-.592-.923-.222-1.317a.648.648,0,0,1,.909-.109l.057-.07a3.856,3.856,0,0,1-.468-.39,1.348,1.348,0,0,1-.282.2,1.584,1.584,0,0,0-.345.275,1.3,1.3,0,0,0,1.871,1.785,2.649,2.649,0,0,0,.466-.721l-.047-.044Z" transform="translate(-47.482 -45.788)" fill="#cecece"/>
      <path id="패스_198" data-name="패스 198" d="M97.573,76.6c-.967-.514-1.312.625-1.981.27-.319-.168-.427-.421-.284-.693.126-.236.451-.248.727-.134l.03-.107a6.067,6.067,0,0,1-.595-.272c-.072.1-.271.367-.322.464a.85.85,0,0,0,.433,1.2c.971.516,1.284-.613,2-.234a.479.479,0,0,1,.236.668c-.173.326-.558.333-.923.191l-.027.11c.215.093.429.175.643.267a1.24,1.24,0,0,0,.471-.45.906.906,0,0,0-.406-1.283" transform="translate(-50.619 -40.301)" fill="#cecece"/>
      <path id="패스_199" data-name="패스 199" d="M101.448,67.317l-1.089-.311c-.246-.07-.219-.179-.2-.258l.017-.061-.1-.029c-.032.114-.051.228-.083.343s-.081.232-.115.347l.1.03.018-.059c.027-.1.062-.208.308-.137l1.163.332c.461.132.7.384.589.767-.119.416-.457.466-.891.344l-1.177-.337c-.245-.071-.216-.188-.184-.3l.011-.035-.1-.029c-.032.116-.06.265-.111.44s-.11.334-.145.458l.1.029.011-.035c.033-.116.067-.223.313-.152l1.232.352a.78.78,0,0,0,1.1-.628c.122-.434,0-.846-.769-1.067" transform="translate(-52.976 -35.503)" fill="#cecece"/>
      <path id="패스_200" data-name="패스 200" d="M77.358,98.769c-.439.219-.931-.212-1.215-.781-.213-.426-.321-.992.151-1.23.448-.224.943.23,1.175.695s.413,1.053-.112,1.316M76.23,96.616a1.212,1.212,0,0,0-.41,1.674,1.163,1.163,0,0,0,1.581.634,1.222,1.222,0,0,0,.413-1.73,1.143,1.143,0,0,0-1.583-.577" transform="translate(-40.295 -51.39)" fill="#cecece"/>
      <path id="패스_201" data-name="패스 201" d="M80.8,95.338l-.125.081-.574-.888a1.42,1.42,0,0,1,.136-.107.454.454,0,0,1,.652.2c.228.351.165.554-.089.718m1.332.278-.927-.481a.659.659,0,0,0,.012-.754c-.272-.424-.623-.34-.942-.134-.134.089-.248.178-.4.277s-.319.191-.4.244l.057.09.047-.03c.079-.051.186-.109.327.11l.98,1.514a.194.194,0,0,1-.075.279l-.046.028.058.091c.127-.082.238-.172.359-.251.145-.094.3-.177.444-.272l-.057-.089-.046.03c-.116.076-.213.125-.363-.1l-.413-.638.168-.108a10.333,10.333,0,0,0,1.153.623c.079-.051.152-.115.23-.166s.172-.095.256-.149l-.058-.091a.33.33,0,0,1-.361-.019" transform="translate(-42.329 -50.107)" fill="#cecece"/>
      <path id="패스_202" data-name="패스 202" d="M88.668,90.973c-.08.073-.176.137-.3,0L87.117,89.6c-.124-.136-.051-.228.03-.3l.03-.028-.072-.079c-.1.1-.23.229-.342.33s-.253.211-.34.29l.072.08.031-.03c.08-.073.177-.138.3,0l1.25,1.377c.125.138.051.227-.029.3l-.031.029.072.079c.086-.079.21-.21.319-.311s.255-.212.362-.31l-.072-.079Z" transform="translate(-46.031 -47.503)" fill="#cecece"/>
      <path id="패스_203" data-name="패스 203" d="M85.8,92.391c.18.374.072.5-.212.722-.151.121-.289.228-.432.048l-.512-.649.283-.226c.164-.129.256-.027.4.13l.058-.073c-.088-.1-.174-.207-.258-.313s-.17-.22-.251-.331l-.071.056c.1.161.149.28.008.394l-.282.223-.577-.731.329-.26c.249-.2.391-.075.546.1l.054-.079c-.1-.117-.252-.3-.342-.423-.161.127-.4.335-.6.492s-.453.342-.6.458l.066.084.032-.027c.086-.068.186-.126.3.021L84.9,93.462c.115.146.036.231-.049.3l-.034.026.066.083c.136-.106.408-.341.621-.51s.494-.374.646-.494c-.1-.165-.183-.335-.27-.507Z" transform="translate(-44.392 -48.456)" fill="#cecece"/>
      <path id="패스_204" data-name="패스 204" d="M100.379,72.847c-.055.135-.125.222-.377.118l-1.749-.711.187-.46c.076-.188.275-.124.4-.08l0-.1c-.088-.036-.177-.072-.263-.114s-.17-.092-.254-.14l-.041.063c.1.045.072.117.041.193l-.588,1.447c-.03.075-.056.146-.164.129l-.027.068a2.33,2.33,0,0,1,.273.131c.091.048.178.1.265.148l.035-.084c-.223-.141-.279-.173-.193-.383l.186-.46,1.755.716c.259.106.243.191.181.345l-.021.053.1.04c.044-.109.111-.311.179-.479.061-.152.154-.343.2-.453l-.1-.04Z" transform="translate(-51.953 -38.008)" fill="#cecece"/>
      <path id="패스_205" data-name="패스 205" d="M103.3,63.656c-.037.215-.084.305-.329.265l-1.9-.321a1.712,1.712,0,0,1,.017-.205c.08-.479.378-.839,1.3-.683.539.091.992.437.906.945m-.9-1.374a1.136,1.136,0,0,0-1.413.981c-.021.129-.034.292-.066.483s-.079.386-.095.474l.105.017.007-.042c.018-.107.055-.217.237-.188l1.832.309c.183.032.181.147.162.254l-.006.043.1.018c.014-.078.035-.292.07-.5s.076-.41.1-.54a1.154,1.154,0,0,0-1.042-1.315" transform="translate(-53.701 -33.16)" fill="#cecece"/>
      <path id="패스_206" data-name="패스 206" d="M93.082,26.132l.761-.67.349.4.306-.267-.35-.4.578-.51-.48-.548a.622.622,0,0,1-.172.474L92.76,25.766Z" transform="translate(-49.406 -12.856)" fill="#cecece"/>
      <path id="패스_207" data-name="패스 207" d="M26.5,51.986A25.489,25.489,0,1,1,51.985,26.5,25.49,25.49,0,0,1,26.5,51.986M26.5,0a26.5,26.5,0,1,0,26.5,26.5A26.5,26.5,0,0,0,26.5,0" transform="translate(0 0)" fill="#cecece"/>
      <path id="패스_208" data-name="패스 208" d="M101.288,37.141a.086.086,0,0,1-.051.038l-.68.276a4.138,4.138,0,0,1-.642.222,1.3,1.3,0,0,1-.485.026l.18.444a1.317,1.317,0,0,0,.469-.01,3.584,3.584,0,0,0,.624-.2l1.093-.445a.038.038,0,0,0,.026-.019c0-.007,0-.018,0-.033l-1.03-2.526-.338.137.824,2.028a.092.092,0,0,1,.011.065" transform="translate(-52.959 -18.594)" fill="#cecece"/>
      <path id="패스_209" data-name="패스 209" d="M102.244,53.2c-.28.017-.454-.106-.469-.344-.012-.21.2-.349.428-.384l-.023-.084a4.727,4.727,0,0,1-.5.062c-.008.094-.031.353-.027.438a.659.659,0,0,0,.773.623c.853-.051.6-.928,1.232-.965a.37.37,0,0,1,.425.347c.018.287-.236.448-.534.5l.025.084c.181-.027.356-.058.536-.085a.959.959,0,0,0,.13-.49.7.7,0,0,0-.788-.685c-.85.05-.618.946-1.206.982" transform="translate(-54.14 -27.811)" fill="#cecece"/>
      <path id="패스_210" data-name="패스 210" d="M104.029,59.771c-.01.109-.038.222-.221.206l-1.852-.162c-.184-.015-.191-.131-.182-.24l0-.043-.106-.009c-.011.142-.013.324-.027.475s-.044.328-.054.444l.107.011,0-.043c.011-.108.038-.221.221-.206l1.852.163c.184.015.192.131.183.241l0,.043.106.009c.01-.118.012-.3.025-.444s.043-.331.055-.476l-.105-.009Z" transform="translate(-54.109 -31.703)" fill="#cecece"/>
      <path id="패스_211" data-name="패스 211" d="M103.726,55.744c.4.1.428.26.42.623,0,.193-.007.37-.237.364l-.826-.015.007-.363c0-.208.142-.215.356-.229l-.019-.091q-.2,0-.4,0c-.138,0-.277-.007-.415-.017l0,.09c.192.022.311.064.307.246l-.006.36-.93-.019.007-.42c.007-.319.193-.351.422-.362l-.026-.091c-.157.006-.389,0-.542-.005-.006.206,0,.522,0,.775s-.025.569-.029.753l.107,0V57.3c0-.109.021-.225.207-.221l1.858.036c.185,0,.2.119.2.229v.041l.106,0c0-.172,0-.532,0-.8s.026-.62.029-.814c-.187-.031-.375-.071-.561-.115Z" transform="translate(-54.224 -29.645)" fill="#cecece"/>
      <path id="패스_212" data-name="패스 212" d="M95.909,36.451l1.345,3.3.342-.138L97.1,38.4l1.387-.565L98.23,37.2a.562.562,0,0,1-.294.343l-1.015.413-.146-.357,1.387-.565L97.9,36.4a.558.558,0,0,1-.293.343l-1.016.413-.345-.845Z" transform="translate(-51.083 -19.341)" fill="#cecece"/>
      <path id="패스_213" data-name="패스 213" d="M90.808,21.813a.485.485,0,0,1,.322-.128.354.354,0,0,1,.286.112.336.336,0,0,1,.075.3.547.547,0,0,1-.18.3.524.524,0,0,1-.318.135.34.34,0,0,1-.361-.418.525.525,0,0,1,.176-.3m.221,1.148a.782.782,0,0,0,.616-.193.834.834,0,0,0,.165-.2.9.9,0,0,0,.089-.238l.3.343.27-.24-.608-.692.351-.306-.453-.516a.546.546,0,0,1-.2.393l-.044.04-.6-.686-.272.238c.2.227.3.337.295.335a.83.83,0,0,0-.247.058.733.733,0,0,0-.221.136.782.782,0,0,0-.271.586.924.924,0,0,0,.827.943" transform="translate(-48.043 -11.006)" fill="#cecece"/>
      <path id="패스_214" data-name="패스 214" d="M49.095,38.867a13.825,13.825,0,0,0,1.456-2.874c.011.23.017.461.017.692a15.093,15.093,0,0,1-.391,3.406,13.893,13.893,0,0,1-1.9,4.243,19.384,19.384,0,0,0,.822-5.466m-3.9,8.76V47.62H43.375a22.8,22.8,0,0,0,.934-4.025,16.29,16.29,0,0,0,4.282-4,20.56,20.56,0,0,1-1.214,5.937,14.1,14.1,0,0,1-2.185,2.1m-1.255,1.248v4.1H30.519V20.063H43.936v4.258H38.694V48.875ZM45.227,25.58a6.148,6.148,0,0,1-.62,3.123,15.748,15.748,0,0,0-4.362-2.867c.074-.085.145-.172.216-.258Zm3.127,3.395a9.043,9.043,0,0,1-.677,3.678.1.1,0,0,0-.007-.019,13.636,13.636,0,0,0-2.691-3.579,6.892,6.892,0,0,0,.756-3.06,13.936,13.936,0,0,1,2.62,2.98M43.474,34.3a14.876,14.876,0,0,0-.942-2.135A10.023,10.023,0,0,0,44.743,29.5a13.028,13.028,0,0,1,2.487,3.349c.065.129.126.261.185.392a10.487,10.487,0,0,1-.953,1.585,11.477,11.477,0,0,1-2.253,2.3,18.345,18.345,0,0,0-.734-2.836M42.142,32.48a13.687,13.687,0,0,1,.871,1.977,17.972,17.972,0,0,1,.755,3,13.745,13.745,0,0,1-3.818,1.861V33.813a11.341,11.341,0,0,0,2.192-1.333M39.95,28.528v-2.29a15.158,15.158,0,0,1,4.428,2.913,9.47,9.47,0,0,1-2.089,2.571,18.022,18.022,0,0,0-2.339-3.194M41.9,32.043a10.644,10.644,0,0,1-1.952,1.226V29.28A17.769,17.769,0,0,1,41.9,32.043m1.864,11.884a22.41,22.41,0,0,1-.9,3.693H39.95V45.465a13.934,13.934,0,0,0,3.816-1.538M39.95,44.961V39.833a14.34,14.34,0,0,0,3.9-1.838,20.492,20.492,0,0,1,.006,5.317,13.6,13.6,0,0,1-3.9,1.648M44.3,37.675a11.977,11.977,0,0,0,2.559-2.558,11.1,11.1,0,0,0,.809-1.285,13.694,13.694,0,0,1,.939,4.909,15.712,15.712,0,0,1-4.22,4.229,20.827,20.827,0,0,0-.087-5.295m5.179-6.621a14.947,14.947,0,0,1,.959,3.647,12.273,12.273,0,0,1-1.366,3.306,13.97,13.97,0,0,0-1.118-4.76,9.725,9.725,0,0,0,.882-3.485,14.024,14.024,0,0,1,.643,1.292M29.265,27.369c-.074.055-.146.11-.218.166a4.24,4.24,0,0,1-1.49-1.482,13.925,13.925,0,0,1,1.709-1.268Zm0,4.46a17.566,17.566,0,0,0-.862,1.818A6.315,6.315,0,0,1,26.052,31.7a13.165,13.165,0,0,1,3.059-3.6l.154.076Zm0,2.172c-.141-.048-.279-.1-.417-.157.131-.32.268-.638.417-.949Zm0,5.253a12.89,12.89,0,0,1-1.629-.707,18.673,18.673,0,0,1,1.039-4.261c.194.078.389.149.59.212Zm0,4.943c-.558-.2-1.094-.425-1.6-.665a19.637,19.637,0,0,1-.081-4.461,13.511,13.511,0,0,0,1.685.7Zm0,4.195c-.135-.086-.272-.17-.4-.26a19.123,19.123,0,0,1-1.11-3.987c.484.217.99.418,1.513.6Zm-5.5-6.556.1-.009c0-.051-.007-.1-.011-.154a15.082,15.082,0,0,0,3.364,2.221,19.631,19.631,0,0,0,.923,3.712,13.988,13.988,0,0,1-4.379-5.769m-.494-1.44a13.793,13.793,0,0,1-.435-5.408,12.865,12.865,0,0,0,.941,1.183,18.13,18.13,0,0,0-.463,4.27c-.014-.014-.029-.03-.043-.045M24.5,29.8a8.674,8.674,0,0,0,.971,1.929,16.736,16.736,0,0,0-1.556,3.86,12.694,12.694,0,0,1-.985-1.32A13.873,13.873,0,0,1,24.5,29.8m-.194,6.228a16.374,16.374,0,0,1,1.484-3.868,6.809,6.809,0,0,0,2.436,1.928A19.09,19.09,0,0,0,27.178,38.3a12.232,12.232,0,0,1-2.868-2.27m2.827,7.246a14.206,14.206,0,0,1-3.325-2.321,17.612,17.612,0,0,1,.367-4.354,12.725,12.725,0,0,0,2.934,2.227,20.217,20.217,0,0,0,.024,4.447m.053-16.893a4.766,4.766,0,0,0,1.473,1.462,13.611,13.611,0,0,0-2.915,3.419,8.706,8.706,0,0,1-.916-2.018,13.974,13.974,0,0,1,2.357-2.863M54.327,36.59a17.643,17.643,0,0,0-9.136-15.462v-2.32H29.265v1.764a17.653,17.653,0,0,0,0,32.035v1.625H45.191V52.05A17.64,17.64,0,0,0,54.327,36.59" transform="translate(-10.137 -10.017)" fill="#cecece"/>
    </g>
  </g>
  <g id="로고_텍스트_국문" data-name="로고 텍스트 국문" transform="translate(64.89 6)">
    <g id="그룹_39" data-name="그룹 39" transform="translate(0 0)" clip-path="url(#clip-path-2)">
      <path id="패스_300" data-name="패스 300" d="M0,6.332V3.291H5.668V2.3A2.5,2.5,0,0,0,4.59.277H9.816V3.291h5.695V6.332H12.719a6.307,6.307,0,0,1,.636,1.383,7.224,7.224,0,0,1,.193,1.548A5.534,5.534,0,0,1,11.862,13.3a5.579,5.579,0,0,1-4.121,1.714A5.43,5.43,0,0,1,3.65,13.3,5.355,5.355,0,0,1,1.936,9.263a4.9,4.9,0,0,1,.221-1.548,4.335,4.335,0,0,1,.581-1.383Zm9.7,10.59v5.2a.38.38,0,0,0,.387.414H21.428v3.042H7.825a2.236,2.236,0,0,1-1.6-.525A2.409,2.409,0,0,1,5.7,23.336v-3.9A2.977,2.977,0,0,0,4.12,16.922ZM5.945,9.263A3.319,3.319,0,0,0,6.5,11.2a1.466,1.466,0,0,0,1.273.857,1.571,1.571,0,0,0,1.3-.857,3.563,3.563,0,0,0,.524-1.881A3.836,3.836,0,0,0,9.07,7.383,1.555,1.555,0,0,0,7.8,6.526a1.558,1.558,0,0,0-1.3.83,3.346,3.346,0,0,0-.552,1.907m15.234.968v8.433H17.226V3.263A3.464,3.464,0,0,0,15.65.416h5.529V7.051h3.429v3.18Z" fill="#cecece"/>
      <path id="패스_301" data-name="패스 301" d="M44.9,9.733h3.124v3.041h-9.4v3.595h6.386a.512.512,0,0,1,.195.055.529.529,0,0,1,.054.221v9.207H41.2V19.63a.513.513,0,0,0-.055-.22.513.513,0,0,0-.221-.056H27.676V16.369h6.636V12.774H24.884V9.733H40.948a4.656,4.656,0,0,0,.525-1.687c.056-.608.112-1.438.112-2.433v-.8A.788.788,0,0,0,41.5,4.4a.778.778,0,0,0-.443-.111H27.345V1.245h18a.522.522,0,0,1,.222.055.56.56,0,0,1,.055.249V5.917a12.686,12.686,0,0,1-.166,2.406,5.514,5.514,0,0,1-.553,1.41" fill="#cecece"/>
      <path id="패스_302" data-name="패스 302" d="M71.085,25.852h-3.9V19.6a5.674,5.674,0,0,1-1.688.359c-.663.056-1.52.083-2.515.083H50.071V17.087h6.775V15.953a2.933,2.933,0,0,0-1.327-2.4h5.114v3.539h3.4a9.531,9.531,0,0,0,1.88-.138,4.983,4.983,0,0,0,1.273-.36V3.262A3.465,3.465,0,0,0,65.611.415h5.474ZM64.477,6.58a5.475,5.475,0,0,1-1.742,4.12,5.927,5.927,0,0,1-4.258,1.687,5.753,5.753,0,0,1-4.2-1.687,5.4,5.4,0,0,1-1.77-4.12,5.482,5.482,0,0,1,1.77-4.12,5.869,5.869,0,0,1,4.2-1.686A6.049,6.049,0,0,1,62.735,2.46a5.562,5.562,0,0,1,1.742,4.12M60.55,6.442a3.32,3.32,0,0,0-.607-1.963,1.862,1.862,0,0,0-1.466-.8,1.736,1.736,0,0,0-1.438.8,3.3,3.3,0,0,0-.581,1.963A3.238,3.238,0,0,0,57.039,8.4a1.67,1.67,0,0,0,1.438.8,1.787,1.787,0,0,0,1.466-.8,3.258,3.258,0,0,0,.607-1.963" fill="#cecece"/>
      <path id="패스_303" data-name="패스 303" d="M94.17,9.733h3.124v3.041h-9.4v3.595H94.28a.5.5,0,0,1,.194.055.514.514,0,0,1,.055.221v9.207H90.465V19.63a.513.513,0,0,0-.055-.22.513.513,0,0,0-.221-.056H76.944V16.369H83.58V12.774H74.152V9.733H90.216a4.637,4.637,0,0,0,.525-1.687c.056-.608.112-1.438.112-2.433v-.8A.788.788,0,0,0,90.77,4.4a.778.778,0,0,0-.443-.111H76.613V1.245h18a.522.522,0,0,1,.222.055.56.56,0,0,1,.055.249V5.917a12.686,12.686,0,0,1-.166,2.406,5.514,5.514,0,0,1-.553,1.41" fill="#cecece"/>
      <path id="패스_304" data-name="패스 304" d="M116.372,7.853V3.263A3.464,3.464,0,0,0,114.8.415h5.53V25.852h-3.954V11.2H113.69a7.194,7.194,0,0,1-2.516,4.008,6.83,6.83,0,0,1-4.452,1.6,6.693,6.693,0,0,1-5.031-2.156,6.992,6.992,0,0,1-2.1-5.143,7.138,7.138,0,0,1,2.1-5.17,6.746,6.746,0,0,1,5-2.129,7.055,7.055,0,0,1,4.479,1.6,7.512,7.512,0,0,1,2.544,4.037ZM103.681,9.512a5.4,5.4,0,0,0,.857,3.014,2.508,2.508,0,0,0,2.24,1.354,2.673,2.673,0,0,0,2.267-1.327,5.539,5.539,0,0,0,.857-2.986,5.7,5.7,0,0,0-.857-3.013,2.518,2.518,0,0,0-4.452-.028,5.155,5.155,0,0,0-.912,2.986" fill="#cecece"/>
      <path id="패스_305" data-name="패스 305" d="M145.237,25.852h-3.511V11.2H140.26V25.852h-3.511V17.917a6.246,6.246,0,0,1-1.548.248c-.609.056-1.355.083-2.185.083H128.4a3.039,3.039,0,0,1-2.35-.829,3.531,3.531,0,0,1-.8-2.6V4.894a2.977,2.977,0,0,0-1.575-2.516h11.059V5.419h-5.585v9.235a.486.486,0,0,0,.165.415.372.372,0,0,0,.332.137h4.424a12.483,12.483,0,0,0,1.521-.082,6.015,6.015,0,0,0,1.161-.249V2.931A3.116,3.116,0,0,0,135.394.415h4.866v7.6h1.466V2.931A3.085,3.085,0,0,0,140.4.415h4.838Z" fill="#cecece"/>
      <path id="패스_306" data-name="패스 306" d="M147.808,5.917V2.876h5.668V2.018A2.5,2.5,0,0,0,152.4,0h5.226V2.876h5.7V5.917h-2.765a5.578,5.578,0,0,1,.526,1.272,5.759,5.759,0,0,1,.166,1.382,5.453,5.453,0,0,1-1.687,3.981,5.535,5.535,0,0,1-4.009,1.66,5.444,5.444,0,0,1-4.009-1.66,5.347,5.347,0,0,1-1.687-3.981,4.645,4.645,0,0,1,.194-1.382,5.434,5.434,0,0,1,.47-1.272Zm20.9,10.285a.505.505,0,0,1,.193.056.31.31,0,0,1,.083.221v9.373H164.9V19.465a.514.514,0,0,0-.055-.221.513.513,0,0,0-.221-.056H151.762V16.2ZM153.863,8.571a3.186,3.186,0,0,0,.5,1.8,1.348,1.348,0,0,0,1.217.8,1.429,1.429,0,0,0,1.217-.774,3.1,3.1,0,0,0,.5-1.769,3.582,3.582,0,0,0-.47-1.825,1.489,1.489,0,0,0-1.217-.775,1.457,1.457,0,0,0-1.217.747,3.122,3.122,0,0,0-.525,1.8m15.124-3.179h3.429V8.571h-3.429V15.1h-3.953V3.263A3.465,3.465,0,0,0,163.458.415h5.529Z" fill="#cecece"/>
      <path id="패스_307" data-name="패스 307" d="M187.4,20.045h8.433v3.042H172.692V20.045h5.419V12.8a2.968,2.968,0,0,0-1.354-2.4h5.087v9.649h1.825V12.8a2.937,2.937,0,0,0-1.327-2.4H187.4Zm1.88-14.681a.77.77,0,0,0-.083-.415.784.784,0,0,0-.442-.11H175.291V1.8h17.64a.445.445,0,0,1,.221.083.31.31,0,0,1,.083.221V10.4a24.216,24.216,0,0,1-.332,4.479,8.154,8.154,0,0,1-1.134,2.959h-3.732a9.429,9.429,0,0,0,1.023-3.125,34.871,34.871,0,0,0,.221-4.617Z" fill="#cecece"/>
    </g>
  </g>
  <g id="로고_텍스트_영문" data-name="로고 텍스트 영문" transform="translate(65.575 37.142)">
    <g id="그룹_41" data-name="그룹 41" transform="translate(0 0)" clip-path="url(#clip-path-3)">
      <path id="패스_308" data-name="패스 308" d="M6.544,4.171V1.556a1.287,1.287,0,0,0-.076-.485A.9.9,0,0,0,6.237.816,1.456,1.456,0,0,0,5.906.7C5.778.689,5.651.676,5.523.676V.2h.434c.153.013.319.013.5.013.152.013.318.013.485.013h.42c.1,0,.23,0,.383-.013H8.19c.153,0,.293,0,.446-.013h.4V.676c-.139,0-.267.013-.4.025a1.137,1.137,0,0,0-.331.115.594.594,0,0,0-.217.255A1.045,1.045,0,0,0,8,1.556V8.215a.929.929,0,0,0,.09.472.436.436,0,0,0,.217.255.7.7,0,0,0,.331.115,2.04,2.04,0,0,0,.4.025v.472c-.242-.013-.522-.013-.854-.013s-.625-.013-.855-.013c-.255,0-.549,0-.88.013-.357,0-.664,0-.919.013V9.082a1.973,1.973,0,0,0,.383-.025.8.8,0,0,0,.331-.115.576.576,0,0,0,.231-.255,1.137,1.137,0,0,0,.076-.472V4.975H2.475v3.24a.941.941,0,0,0,.089.472.44.44,0,0,0,.217.255.7.7,0,0,0,.331.115,2.04,2.04,0,0,0,.4.025v.472H3.1c-.154-.013-.306-.013-.459-.013H2.194c-.153-.013-.294-.013-.395-.013H1.378c-.166,0-.332,0-.485.013s-.319,0-.472.013H0V9.082a1.973,1.973,0,0,0,.383-.025.809.809,0,0,0,.331-.115.569.569,0,0,0,.23-.255,1.134,1.134,0,0,0,.077-.472V1.556a1.285,1.285,0,0,0-.077-.485A.886.886,0,0,0,.714.816,1.491,1.491,0,0,0,.383.7C.255.689.128.676,0,.676V.2C.23.216.523.216.867.216s.613.013.855.013h.421c.153,0,.306,0,.472-.013s.319,0,.472-.013h.421V.676c-.141,0-.268.013-.4.025a1.137,1.137,0,0,0-.331.115.6.6,0,0,0-.217.255,1.059,1.059,0,0,0-.089.485V4.171Z" fill="#cecece"/>
      <path id="패스_309" data-name="패스 309" d="M14.537,7.9c.017.077.051.17.085.272s.068.213.11.315.069.213.1.3a.6.6,0,0,0,.094.2.421.421,0,0,0,.263.2,1.251,1.251,0,0,0,.35.051v.2h-.23c-.094-.009-.188-.009-.282-.009h-.271a2.129,2.129,0,0,0-.239-.01h-.29c-.11,0-.221,0-.323.01-.119,0-.23,0-.332.009h-.29v-.2h.188a.587.587,0,0,0,.256-.068.222.222,0,0,0,.119-.221,1.923,1.923,0,0,0-.035-.2c-.025-.085-.051-.171-.077-.247l-.4-1.234h-1.9l-.213.689c-.051.171-.094.333-.128.495a1.445,1.445,0,0,0-.068.417c0,.162.042.264.145.3a.732.732,0,0,0,.323.068h.213v.2h-.23c-.093-.009-.187-.009-.272-.009h-.281a2.12,2.12,0,0,0-.239-.01c-.144,0-.315,0-.519.01s-.392,0-.527.009v-.2a1.355,1.355,0,0,0,.476-.145.864.864,0,0,0,.281-.4c.06-.136.111-.28.162-.434.043-.137.085-.281.136-.418l1.209-3.669c.026-.086.06-.2.094-.332a1.3,1.3,0,0,0,.051-.358V3.348a.557.557,0,0,1-.017-.111c.111-.026.238-.068.392-.12a3.554,3.554,0,0,0,.417-.178h.042ZM11.625,6.719h1.541l-.783-2.375h-.026Z" fill="#cecece"/>
      <path id="패스_310" data-name="패스 310" d="M21.966,9.5h-.5L17.343,4.438V7.817a4.492,4.492,0,0,0,.034.648.764.764,0,0,0,.128.392.434.434,0,0,0,.272.195,1.4,1.4,0,0,0,.46.059v.316c-.154,0-.34-.009-.545-.009-.221-.009-.4-.009-.553-.009h-.265c-.1,0-.195,0-.3.009s-.2,0-.3.009h-.264V9.111a1.968,1.968,0,0,0,.306-.016.45.45,0,0,0,.255-.119.738.738,0,0,0,.179-.3,1.851,1.851,0,0,0,.068-.563V4.429a.975.975,0,0,0-.229-.715A1.04,1.04,0,0,0,15.9,3.5V3.186c.1.008.23.008.4.008.153.008.29.008.409.008a1.841,1.841,0,0,0,.187-.008c.077,0,.162,0,.247-.008a2.176,2.176,0,0,0,.238-.009.55.55,0,0,0,.187-.026l3.874,4.76V4.454a1.1,1.1,0,0,0-.195-.732,1.036,1.036,0,0,0-.716-.221V3.186c.162.008.35.008.572.008s.4.008.57.008c.136,0,.3,0,.5-.008s.366-.008.5-.008V3.5a2.648,2.648,0,0,0-.289.017.476.476,0,0,0-.23.11.549.549,0,0,0-.145.247,1.583,1.583,0,0,0-.051.443Z" fill="#cecece"/>
      <path id="패스_311" data-name="패스 311" d="M23.11,9.111a1.3,1.3,0,0,0,.256-.017.527.527,0,0,0,.222-.077.377.377,0,0,0,.152-.17.751.751,0,0,0,.052-.315V4.088a.861.861,0,0,0-.052-.324.6.6,0,0,0-.152-.171,1.058,1.058,0,0,0-.222-.076A2.2,2.2,0,0,0,23.11,3.5V3.185c.153.009.35.009.579.009s.409.008.57.008h.273c.1,0,.2,0,.307-.008s.187,0,.281-.009h.229V3.5a1.424,1.424,0,0,0-.2.016.643.643,0,0,0-.187.076.4.4,0,0,0-.145.171.862.862,0,0,0-.051.324l-.008,1.907,1.788-1.9c.016-.017.05-.059.1-.11.033-.043.076-.094.119-.146a1.38,1.38,0,0,0,.094-.135.243.243,0,0,0,.042-.1c0-.05-.051-.076-.153-.1-.1,0-.2-.006-.3-.006V3.185c.153.009.315.009.5.009s.341.008.494.008h.238c.094,0,.2,0,.307-.008s.2,0,.307-.009h.229V3.5a1.433,1.433,0,0,0-.289.025,1.184,1.184,0,0,0-.315.11,2.074,2.074,0,0,0-.367.239,3.722,3.722,0,0,0-.442.409L25.468,6l2.521,2.818a.49.49,0,0,0,.2.153.718.718,0,0,0,.221.085.622.622,0,0,0,.213.043,1.466,1.466,0,0,0,.178.008v.316h-.254c-.1-.009-.2-.009-.307-.009h-.528a1.464,1.464,0,0,1-.443-.06.746.746,0,0,1-.315-.229L24.762,6.651V8.532a.753.753,0,0,0,.051.315.289.289,0,0,0,.145.17.359.359,0,0,0,.2.077.931.931,0,0,0,.221.017v.316h-.23c-.094-.009-.187-.009-.281-.009h-.3c-.1-.009-.187-.009-.255-.009H24.03c-.11,0-.222,0-.323.009s-.213,0-.316.009H23.11Z" fill="#cecece"/>
      <path id="패스_312" data-name="패스 312" d="M34.754,3.5a.682.682,0,0,0-.323.067.419.419,0,0,0-.188.213,1.024,1.024,0,0,0-.085.392c-.017.162-.017.358-.017.588V7.179a3.5,3.5,0,0,1-.136.979,2.176,2.176,0,0,1-.4.749,1.874,1.874,0,0,1-.656.486,2.436,2.436,0,0,1-.92.17,2.636,2.636,0,0,1-.885-.145,1.722,1.722,0,0,1-.681-.46,1.868,1.868,0,0,1-.443-.766,3.547,3.547,0,0,1-.154-1.107v-3a.859.859,0,0,0-.05-.323.579.579,0,0,0-.154-.171.962.962,0,0,0-.221-.076,2.6,2.6,0,0,0-.264-.017V3.186c.162.008.357.008.588.008s.408.008.57.008h.281c.1,0,.2,0,.324-.008.1,0,.212,0,.315-.008h.28V3.5a2.422,2.422,0,0,0-.263.017.751.751,0,0,0-.222.076.426.426,0,0,0-.153.171.714.714,0,0,0-.06.323V6.9a2.874,2.874,0,0,0,.35,1.55,1.112,1.112,0,0,0,1.021.571,1.176,1.176,0,0,0,.63-.162,1.254,1.254,0,0,0,.417-.409,1.96,1.96,0,0,0,.23-.587,3.518,3.518,0,0,0,.069-.681V4.786c0-.3-.009-.554-.026-.732a.9.9,0,0,0-.1-.374.34.34,0,0,0-.222-.146c-.1-.016-.229-.025-.383-.033V3.186c.145.008.324.008.537.008s.375.008.528.008c.119,0,.264,0,.433-.008s.316-.008.435-.008Z" fill="#cecece"/>
      <path id="패스_313" data-name="패스 313" d="M35.159,9.111a1.3,1.3,0,0,0,.256-.017.527.527,0,0,0,.222-.077.377.377,0,0,0,.152-.17.751.751,0,0,0,.052-.315V4.088a.861.861,0,0,0-.052-.324.6.6,0,0,0-.152-.171,1.058,1.058,0,0,0-.222-.076,2.2,2.2,0,0,0-.256-.016V3.185c.153.009.35.009.579.009s.409.008.57.008h.273c.1,0,.2,0,.307-.008s.187,0,.281-.009H37.4V3.5a1.424,1.424,0,0,0-.2.016.643.643,0,0,0-.187.076.4.4,0,0,0-.145.171.862.862,0,0,0-.051.324L36.8,5.995l1.788-1.9c.016-.017.05-.059.1-.11.033-.043.076-.094.119-.146a1.379,1.379,0,0,0,.094-.135.243.243,0,0,0,.042-.1c0-.05-.051-.076-.153-.1-.1,0-.2-.006-.3-.006V3.185c.153.009.315.009.5.009s.341.008.494.008h.238c.094,0,.2,0,.307-.008s.2,0,.307-.009h.229V3.5a1.433,1.433,0,0,0-.289.025,1.184,1.184,0,0,0-.315.11,2.074,2.074,0,0,0-.367.239,3.722,3.722,0,0,0-.442.409L37.517,6l2.521,2.818a.49.49,0,0,0,.2.153.718.718,0,0,0,.221.085.622.622,0,0,0,.213.043,1.466,1.466,0,0,0,.178.008v.316h-.254c-.1-.009-.2-.009-.307-.009h-.528a1.464,1.464,0,0,1-.443-.06A.746.746,0,0,1,39,9.129L36.811,6.651V8.532a.753.753,0,0,0,.051.315.289.289,0,0,0,.145.17.359.359,0,0,0,.2.077.931.931,0,0,0,.221.017v.316h-.23c-.094-.009-.187-.009-.281-.009h-.3c-.1-.009-.187-.009-.255-.009h-.281c-.11,0-.222,0-.323.009s-.213,0-.316.009h-.281Z" fill="#cecece"/>
      <path id="패스_314" data-name="패스 314" d="M52.206.676a1.007,1.007,0,0,0-.484.1.623.623,0,0,0-.282.319,1.541,1.541,0,0,0-.127.587c-.025.242-.025.535-.025.88V6.187a5.226,5.226,0,0,1-.2,1.468,3.252,3.252,0,0,1-.6,1.121A2.784,2.784,0,0,1,49.5,9.5a3.63,3.63,0,0,1-1.378.255A3.939,3.939,0,0,1,46.8,9.541a2.612,2.612,0,0,1-1.022-.688A2.835,2.835,0,0,1,45.113,7.7a5.311,5.311,0,0,1-.229-1.658V1.556a1.3,1.3,0,0,0-.076-.484.906.906,0,0,0-.23-.256A1.481,1.481,0,0,0,44.246.7c-.128-.012-.268-.025-.395-.025V.2c.242.013.536.013.879.013s.613.013.856.013h.421c.152,0,.305,0,.484-.013.153,0,.319,0,.472-.013h.421V.676c-.14,0-.268.013-.4.025a1.137,1.137,0,0,0-.331.115.619.619,0,0,0-.229.256,1.038,1.038,0,0,0-.09.484v4.21a4.32,4.32,0,0,0,.523,2.321,1.671,1.671,0,0,0,1.531.855,1.764,1.764,0,0,0,.944-.243,1.913,1.913,0,0,0,.625-.612,3.067,3.067,0,0,0,.345-.88,5.394,5.394,0,0,0,.1-1.02V2.6c0-.459-.013-.829-.038-1.1a1.334,1.334,0,0,0-.153-.561.493.493,0,0,0-.331-.217A5.6,5.6,0,0,0,49.31.676V.2c.217.013.485.013.8.013s.561.013.791.013c.178,0,.4,0,.651-.013S52.027.2,52.206.2Z" fill="#cecece"/>
      <path id="패스_315" data-name="패스 315" d="M58.66,9.5h-.5L54.037,4.438V7.817a4.493,4.493,0,0,0,.034.648.774.774,0,0,0,.127.392.438.438,0,0,0,.274.195,1.383,1.383,0,0,0,.459.059v.316c-.154,0-.34-.009-.545-.009-.221-.009-.4-.009-.553-.009h-.265c-.1,0-.195,0-.3.009s-.2,0-.3.009h-.264V9.111a1.968,1.968,0,0,0,.306-.016.453.453,0,0,0,.255-.119.738.738,0,0,0,.179-.3,1.851,1.851,0,0,0,.068-.563V4.429a.975.975,0,0,0-.229-.715A1.04,1.04,0,0,0,52.6,3.5V3.186c.1.008.23.008.4.008.153.008.29.008.409.008a1.841,1.841,0,0,0,.187-.008c.077,0,.162,0,.247-.008a2.176,2.176,0,0,0,.238-.009.55.55,0,0,0,.187-.026l3.874,4.76V4.454a1.1,1.1,0,0,0-.195-.732,1.036,1.036,0,0,0-.716-.221V3.186c.162.008.35.008.572.008s.4.008.57.008c.136,0,.3,0,.5-.008s.366-.008.5-.008V3.5a2.652,2.652,0,0,0-.29.017.476.476,0,0,0-.23.11.549.549,0,0,0-.145.247,1.583,1.583,0,0,0-.051.443Z" fill="#cecece"/>
      <path id="패스_316" data-name="패스 316" d="M60.486,4.088a.855.855,0,0,0-.052-.323.587.587,0,0,0-.152-.171.986.986,0,0,0-.222-.076A2.445,2.445,0,0,0,59.8,3.5V3.186c.154.008.35.008.579.008s.41.008.571.008h.281c.1,0,.2,0,.315-.008s.213,0,.315-.008h.281V3.5a2.441,2.441,0,0,0-.264.017.744.744,0,0,0-.221.076.393.393,0,0,0-.145.171.7.7,0,0,0-.059.323V8.532a.628.628,0,0,0,.059.316.289.289,0,0,0,.145.17.456.456,0,0,0,.221.077,1.414,1.414,0,0,0,.264.016v.316h-.272c-.1-.009-.2-.009-.307-.009h-.3c-.1-.009-.2-.009-.263-.009h-.282c-.11,0-.221,0-.323.009s-.213,0-.315.009H59.8V9.111A1.376,1.376,0,0,0,60.06,9.1a.536.536,0,0,0,.222-.077.377.377,0,0,0,.152-.17.759.759,0,0,0,.052-.316Z" fill="#cecece"/>
      <path id="패스_317" data-name="패스 317" d="M65.771,7.826l1.294-3.738a.641.641,0,0,0,.052-.247.325.325,0,0,0-.06-.179.939.939,0,0,0-.144-.094c-.069-.016-.128-.034-.2-.051a1.243,1.243,0,0,1-.187-.016V3.185h.238a2.52,2.52,0,0,0,.265.009c.085.008.17.008.255.008h.23c.11,0,.255,0,.434-.008s.306,0,.425-.009V3.5a.713.713,0,0,0-.357.1.525.525,0,0,0-.247.282l-2.1,5.678h-.324L63.353,4.139a1.162,1.162,0,0,0-.307-.494A.9.9,0,0,0,62.51,3.5V3.185H62.8c.1.009.205.009.325.009.1.008.212.008.323.008h.281c.067,0,.153,0,.255-.008h.29c.094,0,.186,0,.289-.009h.256V3.5a1.409,1.409,0,0,1-.188.008,1,1,0,0,0-.178.017.185.185,0,0,0-.119.042.227.227,0,0,0-.052.162.139.139,0,0,0,.017.085.218.218,0,0,0,.017.085l1.431,3.926Z" fill="#cecece"/>
      <path id="패스_318" data-name="패스 318" d="M70.477,5.876h.808a.61.61,0,0,0,.323-.068.485.485,0,0,0,.187-.161.709.709,0,0,0,.086-.206,1.647,1.647,0,0,0,.017-.178h.264a1.078,1.078,0,0,0-.009.178c-.007.078-.007.154-.007.24a2.527,2.527,0,0,0-.01.272v.238a4.426,4.426,0,0,0,.017.452c0,.187.009.34.009.461H71.9a1.585,1.585,0,0,0-.043-.393.511.511,0,0,0-.145-.2.715.715,0,0,0-.246-.085c-.1,0-.221-.009-.358-.009h-.629v1.7a2.431,2.431,0,0,0,.016.358.589.589,0,0,0,.059.264.276.276,0,0,0,.137.154.356.356,0,0,0,.229.059h.768a2.067,2.067,0,0,0,.417-.034.64.64,0,0,0,.3-.128.777.777,0,0,0,.222-.238,4.111,4.111,0,0,0,.187-.384l.289.026q-.051.294-.1.613c-.035.221-.068.418-.085.622h-.605c-.222-.009-.434-.009-.646-.009h-.648c-.222-.009-.426-.009-.613-.009H69.59c-.281,0-.553,0-.807.018V9.111a1.431,1.431,0,0,0,.373-.034.347.347,0,0,0,.213-.136.628.628,0,0,0,.111-.272,3.132,3.132,0,0,0,.026-.451v-4a2.1,2.1,0,0,0-.035-.375.528.528,0,0,0-.118-.213.629.629,0,0,0-.222-.094c-.1-.016-.214-.025-.348-.033V3.186c.238.016.484.016.739.016H71.5c.213,0,.427,0,.639-.008s.408,0,.6-.008V4.395l-.264.034a1,1,0,0,0-.28-.588,1.19,1.19,0,0,0-.733-.179h-.978Z" fill="#cecece"/>
      <path id="패스_319" data-name="패스 319" d="M73.615,3.185c.136.009.272.009.425.009.137.008.273.008.41.008h.357a.974.974,0,0,0,.153-.008h.162c.12,0,.255-.009.4-.009s.29.009.46.017a2.829,2.829,0,0,1,.826.153,1.871,1.871,0,0,1,.554.35,1.543,1.543,0,0,1,.3.476,1.875,1.875,0,0,1,.093.563,1.59,1.59,0,0,1-.281.97,1.67,1.67,0,0,1-.8.6L78.23,8.669a.8.8,0,0,0,.366.323,1.1,1.1,0,0,0,.545.119v.316c-.272,0-.511-.009-.715-.009a4.278,4.278,0,0,1-.528-.051,1.429,1.429,0,0,1-.392-.144.8.8,0,0,1-.272-.282L75.675,6.48a.327.327,0,0,1-.094.009.488.488,0,0,1-.11.009.38.38,0,0,1-.1-.009.335.335,0,0,1-.1-.009V8.532a.627.627,0,0,0,.06.316.313.313,0,0,0,.162.169.453.453,0,0,0,.22.078,1.247,1.247,0,0,0,.247.016v.316h-.221c-.1-.009-.2-.009-.315-.009h-.349c-.119-.009-.213-.009-.289-.009h-.358c-.128,0-.264,0-.4.009-.153,0-.289,0-.409.009V9.111a1.277,1.277,0,0,0,.247-.025.5.5,0,0,0,.221-.076.432.432,0,0,0,.154-.171.6.6,0,0,0,.059-.273V4.131a.907.907,0,0,0-.05-.332.643.643,0,0,0-.137-.188.639.639,0,0,0-.222-.094c-.085-.008-.179-.016-.272-.016Zm1.652,2.853a1.5,1.5,0,0,0,.392.042.982.982,0,0,0,.485-.11,1,1,0,0,0,.341-.282A1.29,1.29,0,0,0,76.68,5.3a1.429,1.429,0,0,0,.068-.434,1.324,1.324,0,0,0-.255-.869,1,1,0,0,0-.741-.323c-.05,0-.093-.009-.144-.009h-.162a.361.361,0,0,1-.085.018.56.56,0,0,1-.094.016Z" fill="#cecece"/>
      <path id="패스_320" data-name="패스 320" d="M79.75,8.014l.264-.026a1.274,1.274,0,0,0,.467.792,1.368,1.368,0,0,0,.92.306,1.9,1.9,0,0,0,.477-.059,1.385,1.385,0,0,0,.435-.179.961.961,0,0,0,.323-.315.866.866,0,0,0,.119-.468.879.879,0,0,0-.2-.6,2.207,2.207,0,0,0-.5-.409c-.205-.119-.426-.229-.656-.34a2.737,2.737,0,0,1-.656-.4,1.917,1.917,0,0,1-.51-.6,1.736,1.736,0,0,1-.2-.9,2.058,2.058,0,0,1,.154-.843,1.307,1.307,0,0,1,.426-.536,1.686,1.686,0,0,1,.629-.3,3.605,3.605,0,0,1,.775-.086,5.4,5.4,0,0,1,.732.052,4.925,4.925,0,0,0,.681.059L83.5,4.326l-.272.009a1.179,1.179,0,0,0-.4-.621,1.353,1.353,0,0,0-.74-.187,2.105,2.105,0,0,0-.478.059,1.173,1.173,0,0,0-.382.195.863.863,0,0,0-.264.316.905.905,0,0,0-.094.434.929.929,0,0,0,.213.647,1.707,1.707,0,0,0,.52.426,4.461,4.461,0,0,0,.672.349,4.9,4.9,0,0,1,.681.4,2.2,2.2,0,0,1,.52.562,1.639,1.639,0,0,1,.2.86,1.767,1.767,0,0,1-.188.843,1.549,1.549,0,0,1-.494.553,2.325,2.325,0,0,1-.7.307,4.2,4.2,0,0,1-.8.085,4.026,4.026,0,0,1-.451-.034c-.162-.026-.315-.051-.46-.077s-.289-.068-.408-.1c-.137-.034-.247-.067-.332-.085Z" fill="#cecece"/>
      <path id="패스_321" data-name="패스 321" d="M85.052,4.088A.855.855,0,0,0,85,3.765a.587.587,0,0,0-.152-.171.986.986,0,0,0-.222-.076A2.445,2.445,0,0,0,84.37,3.5V3.186c.154.008.35.008.579.008s.41.008.571.008H85.8c.1,0,.2,0,.315-.008s.213,0,.315-.008h.281V3.5a2.441,2.441,0,0,0-.264.017.744.744,0,0,0-.221.076.393.393,0,0,0-.145.171.7.7,0,0,0-.059.323V8.532a.628.628,0,0,0,.059.316.289.289,0,0,0,.145.17.456.456,0,0,0,.221.077,1.414,1.414,0,0,0,.264.016v.316H86.44c-.1-.009-.2-.009-.307-.009h-.3c-.1-.009-.2-.009-.263-.009H85.29c-.11,0-.221,0-.323.009s-.213,0-.315.009H84.37V9.111a1.376,1.376,0,0,0,.256-.016.536.536,0,0,0,.222-.077A.377.377,0,0,0,85,8.848a.76.76,0,0,0,.052-.316Z" fill="#cecece"/>
      <path id="패스_322" data-name="패스 322" d="M91.844,4.479h-.306c0-.1-.008-.2-.017-.289a.968.968,0,0,0-.085-.238.485.485,0,0,0-.179-.162.872.872,0,0,0-.332-.06h-.962v4.8a.623.623,0,0,0,.06.315.3.3,0,0,0,.153.17.459.459,0,0,0,.221.077,1.337,1.337,0,0,0,.264.017v.315h-.273c-.1-.008-.2-.008-.306-.008h-.306c-.1-.009-.2-.009-.265-.009h-.28c-.112,0-.222,0-.325.009-.119,0-.22,0-.323.008h-.289V9.111a1.378,1.378,0,0,0,.264-.017.519.519,0,0,0,.229-.077.375.375,0,0,0,.154-.17.757.757,0,0,0,.051-.315V3.73h-.8a1.286,1.286,0,0,0-.367.043.424.424,0,0,0-.195.145.534.534,0,0,0-.1.229c-.026.1-.051.213-.069.332h-.3l.018-1.4H87.5c.026.059.06.093.111.093a.944.944,0,0,0,.263.017h3.27c.23,0,.358-.034.392-.11h.332Z" fill="#cecece"/>
      <path id="패스_323" data-name="패스 323" d="M95.766,8.532a.638.638,0,0,0,.06.316.305.305,0,0,0,.153.169.45.45,0,0,0,.222.077,1.194,1.194,0,0,0,.254.017v.316h-.28c-.1-.009-.213-.009-.315-.009s-.213-.009-.316-.009H95c-.1,0-.2,0-.305.009s-.213,0-.316.009h-.272V9.111a1.378,1.378,0,0,0,.264-.017.484.484,0,0,0,.221-.077.383.383,0,0,0,.154-.169.744.744,0,0,0,.059-.316V6.446L93,3.756c-.051-.069-.093-.12-.136-.17a1.32,1.32,0,0,0-.145-.094c-.059-.018-.119-.025-.187-.043s-.154-.017-.239-.034v-.23h.2c.093.009.205.009.324.009s.238.008.366.008h.3c.068,0,.144,0,.247-.008H94c.094,0,.188,0,.29-.009h.247v.23h-.119a.887.887,0,0,1-.145.017,1.071,1.071,0,0,0-.127.051.109.109,0,0,0-.06.094.386.386,0,0,0,.068.2,2.4,2.4,0,0,0,.162.28l1.158,1.789L96.592,4.19c.042-.059.1-.144.17-.256a.544.544,0,0,0,.1-.3.175.175,0,0,0-.145-.195,2.643,2.643,0,0,0-.418-.026v-.23c.137.009.3.009.494.009s.358.008.494.008a1.408,1.408,0,0,0,.17-.008h.213a1.679,1.679,0,0,0,.213-.009h.179v.23a.568.568,0,0,0-.366.137,1.835,1.835,0,0,0-.273.306l-1.66,2.478Z" fill="#cecece"/>
      <path id="패스_324" data-name="패스 324" d="M101.395,6.344a3.722,3.722,0,0,1,.205-1.209,3.239,3.239,0,0,1,.571-1.056,3,3,0,0,1,.911-.749,2.538,2.538,0,0,1,1.2-.281,2.6,2.6,0,0,1,1.141.264,3.158,3.158,0,0,1,.9.706,3.765,3.765,0,0,1,.605,1.031,3.669,3.669,0,0,1,.212,1.217,3.843,3.843,0,0,1-.195,1.2,3.439,3.439,0,0,1-.579,1.056,2.916,2.916,0,0,1-.911.758,2.564,2.564,0,0,1-1.2.28,2.535,2.535,0,0,1-1.133-.263,2.662,2.662,0,0,1-.911-.715,3.059,3.059,0,0,1-.6-1.023,3.253,3.253,0,0,1-.222-1.217m1.056-.315a4.534,4.534,0,0,0,.052.664,3.633,3.633,0,0,0,.135.69,3.285,3.285,0,0,0,.239.647,2.174,2.174,0,0,0,.349.536,1.351,1.351,0,0,0,.452.375,1.082,1.082,0,0,0,.579.145,1.6,1.6,0,0,0,.749-.179,1.731,1.731,0,0,0,.579-.511,2.689,2.689,0,0,0,.375-.783,3.842,3.842,0,0,0,.127-1.03,5.6,5.6,0,0,0-.1-1.014,4.47,4.47,0,0,0-.315-.987,2.721,2.721,0,0,0-.562-.758,1.26,1.26,0,0,0-.826-.3,1.573,1.573,0,0,0-.749.179,1.634,1.634,0,0,0-.579.5,2.411,2.411,0,0,0-.366.792,3.532,3.532,0,0,0-.137,1.03" fill="#cecece"/>
      <path id="패스_325" data-name="패스 325" d="M109.677,8.559a.751.751,0,0,0,.051.314.274.274,0,0,0,.128.163.36.36,0,0,0,.2.059,1.214,1.214,0,0,0,.256.017v.315h-.29c-.12-.009-.23-.009-.349-.009s-.238-.008-.341-.008h-.289c-.162,0-.332,0-.519.008s-.367,0-.537.009V9.112a1.5,1.5,0,0,0,.366-.034.356.356,0,0,0,.213-.136.626.626,0,0,0,.111-.273,3.146,3.146,0,0,0,.025-.451v-4a2.01,2.01,0,0,0-.034-.375.518.518,0,0,0-.119-.213.588.588,0,0,0-.222-.093,3.364,3.364,0,0,0-.34-.034V3.186h.4c.137.009.281.009.434.009h.443c.137.008.272.008.409.008h1.133c.186,0,.383,0,.578-.008s.375,0,.545-.009l.043,1.141-.281.025a.829.829,0,0,0-.264-.527,1.382,1.382,0,0,0-.758-.162h-1V5.876h.826a1.364,1.364,0,0,0,.349-.034.366.366,0,0,0,.2-.094.432.432,0,0,0,.119-.178c.018-.069.043-.161.068-.273h.282v.154a2.034,2.034,0,0,0-.009.238,2.6,2.6,0,0,0-.009.265c-.008.092-.008.169-.008.238a1.986,1.986,0,0,0,.008.213,2.036,2.036,0,0,0,.009.238,1.833,1.833,0,0,0,.009.23V7.06h-.264c-.018-.1-.034-.2-.052-.289a.58.58,0,0,0-.11-.2.588.588,0,0,0-.2-.119,1.989,1.989,0,0,0-.366-.034h-.852Z" fill="#cecece"/>
      <path id="패스_326" data-name="패스 326" d="M117.82,8.253a1.133,1.133,0,0,0,.076.472.413.413,0,0,0,.192.242.533.533,0,0,0,.305.09,1.849,1.849,0,0,0,.383.025v.472h-.434c-.178-.013-.343-.013-.522-.013s-.357-.013-.511-.013h-.433c-.243,0-.5,0-.779.013s-.548,0-.8.013V9.082a2.305,2.305,0,0,0,.548-.051.542.542,0,0,0,.32-.2.947.947,0,0,0,.165-.408,4.786,4.786,0,0,0,.039-.677v-6a3.069,3.069,0,0,0-.052-.561.755.755,0,0,0-.179-.319.85.85,0,0,0-.331-.14c-.153-.026-.319-.038-.51-.051V.2h.6c.2.013.421.013.651.013h.664c.2.013.408.013.612.013h1.7c.281,0,.575,0,.867-.013s.562,0,.817-.013l.064,1.71-.422.038a1.233,1.233,0,0,0-.394-.791,2.089,2.089,0,0,0-1.136-.242H117.82V4.234h1.237a2.088,2.088,0,0,0,.523-.05.57.57,0,0,0,.306-.141.7.7,0,0,0,.179-.268c.026-.1.064-.242.1-.408h.421V3.6a3.16,3.16,0,0,0-.013.357c-.013.127-.013.268-.013.4s-.013.255-.013.356a2.719,2.719,0,0,0,.013.319,3.178,3.178,0,0,0,.013.358,2.829,2.829,0,0,0,.013.344v.281h-.4c-.025-.153-.051-.307-.076-.434a.89.89,0,0,0-.166-.306.89.89,0,0,0-.306-.179,3.014,3.014,0,0,0-.549-.051H117.82Z" fill="#cecece"/>
      <path id="패스_327" data-name="패스 327" d="M122.251,6.344a3.722,3.722,0,0,1,.205-1.209,3.239,3.239,0,0,1,.571-1.056,3,3,0,0,1,.911-.749,2.538,2.538,0,0,1,1.2-.281,2.6,2.6,0,0,1,1.141.264,3.158,3.158,0,0,1,.9.706,3.766,3.766,0,0,1,.605,1.031A3.669,3.669,0,0,1,128,6.267a3.843,3.843,0,0,1-.195,1.2,3.439,3.439,0,0,1-.579,1.056,2.916,2.916,0,0,1-.911.758,2.564,2.564,0,0,1-1.2.28A2.535,2.535,0,0,1,123.98,9.3a2.662,2.662,0,0,1-.911-.715,3.059,3.059,0,0,1-.6-1.023,3.253,3.253,0,0,1-.222-1.217m1.056-.315a4.533,4.533,0,0,0,.052.664,3.633,3.633,0,0,0,.135.69,3.284,3.284,0,0,0,.239.647,2.174,2.174,0,0,0,.349.536,1.351,1.351,0,0,0,.452.375,1.082,1.082,0,0,0,.579.145,1.6,1.6,0,0,0,.749-.179,1.731,1.731,0,0,0,.579-.511,2.689,2.689,0,0,0,.375-.783,3.842,3.842,0,0,0,.127-1.03,5.605,5.605,0,0,0-.1-1.014,4.47,4.47,0,0,0-.315-.987,2.721,2.721,0,0,0-.562-.758,1.26,1.26,0,0,0-.826-.3,1.573,1.573,0,0,0-.749.179,1.634,1.634,0,0,0-.579.5,2.411,2.411,0,0,0-.366.792,3.532,3.532,0,0,0-.137,1.03" fill="#cecece"/>
      <path id="패스_328" data-name="패스 328" d="M128.879,3.185c.136.009.272.009.425.009.137.008.273.008.41.008h.357a.975.975,0,0,0,.153-.008h.162c.12,0,.255-.009.4-.009s.29.009.46.017a2.829,2.829,0,0,1,.826.153,1.858,1.858,0,0,1,.554.35,1.543,1.543,0,0,1,.3.476,1.875,1.875,0,0,1,.093.563,1.59,1.59,0,0,1-.281.97,1.672,1.672,0,0,1-.8.6l1.558,2.359a.8.8,0,0,0,.366.323,1.1,1.1,0,0,0,.545.119v.316c-.272,0-.511-.009-.715-.009a4.278,4.278,0,0,1-.528-.051,1.429,1.429,0,0,1-.392-.144.8.8,0,0,1-.272-.282L130.939,6.48a.323.323,0,0,1-.093.009.5.5,0,0,1-.111.009.38.38,0,0,1-.1-.009.335.335,0,0,1-.1-.009V8.532a.627.627,0,0,0,.06.316.313.313,0,0,0,.162.169.453.453,0,0,0,.22.078,1.246,1.246,0,0,0,.247.016v.316H131c-.1-.009-.2-.009-.315-.009h-.349c-.119-.009-.213-.009-.289-.009h-.358c-.128,0-.264,0-.4.009-.153,0-.289,0-.409.009V9.111a1.278,1.278,0,0,0,.247-.025.5.5,0,0,0,.221-.076.432.432,0,0,0,.154-.171.6.6,0,0,0,.059-.273V4.131a.906.906,0,0,0-.05-.332.643.643,0,0,0-.137-.188.639.639,0,0,0-.222-.094c-.085-.008-.179-.016-.272-.016Zm1.652,2.853a1.5,1.5,0,0,0,.392.042.982.982,0,0,0,.485-.11,1,1,0,0,0,.341-.282,1.29,1.29,0,0,0,.2-.391,1.429,1.429,0,0,0,.068-.434,1.324,1.324,0,0,0-.255-.869,1,1,0,0,0-.741-.323c-.05,0-.093-.009-.144-.009h-.162a.361.361,0,0,1-.085.018.56.56,0,0,1-.094.016Z" fill="#cecece"/>
      <path id="패스_329" data-name="패스 329" d="M136.59,5.876h.809a.61.61,0,0,0,.323-.068.493.493,0,0,0,.187-.161.682.682,0,0,0,.085-.206,1.446,1.446,0,0,0,.018-.178h.264a1.078,1.078,0,0,0-.009.178,2.328,2.328,0,0,0-.008.24c-.009.092-.009.186-.009.272v.238a4.426,4.426,0,0,0,.017.452c0,.187.009.34.009.461h-.264a1.634,1.634,0,0,0-.043-.393.521.521,0,0,0-.145-.2.713.713,0,0,0-.247-.085c-.1,0-.221-.009-.357-.009h-.63v1.7a2.289,2.289,0,0,0,.017.358.576.576,0,0,0,.059.264.276.276,0,0,0,.137.154.354.354,0,0,0,.229.059h.767a2.054,2.054,0,0,0,.417-.034.639.639,0,0,0,.3-.128.777.777,0,0,0,.222-.238c.059-.1.119-.231.187-.384l.289.026q-.051.294-.1.613c-.035.221-.068.418-.085.622h-.6c-.222-.009-.434-.009-.646-.009h-.648c-.222-.009-.426-.009-.613-.009H135.7c-.281,0-.553,0-.808.018V9.111a1.439,1.439,0,0,0,.374-.034.35.35,0,0,0,.213-.136.628.628,0,0,0,.111-.272,3.156,3.156,0,0,0,.025-.451v-4a2.11,2.11,0,0,0-.034-.375.518.518,0,0,0-.119-.213.613.613,0,0,0-.222-.094c-.1-.016-.213-.025-.348-.033V3.186c.238.016.485.016.74.016h1.975c.213,0,.426,0,.639-.008s.408,0,.6-.008V4.395l-.264.034a1,1,0,0,0-.281-.588,1.187,1.187,0,0,0-.732-.179h-.979Z" fill="#cecece"/>
      <path id="패스_330" data-name="패스 330" d="M140.324,4.088a.855.855,0,0,0-.052-.323.587.587,0,0,0-.152-.171.986.986,0,0,0-.222-.076,2.445,2.445,0,0,0-.256-.017V3.186c.154.008.35.008.579.008s.41.008.571.008h.281c.1,0,.2,0,.315-.008s.213,0,.315-.008h.281V3.5a2.441,2.441,0,0,0-.264.017.744.744,0,0,0-.221.076.393.393,0,0,0-.145.171.7.7,0,0,0-.059.323V8.532a.628.628,0,0,0,.059.316.289.289,0,0,0,.145.17.456.456,0,0,0,.221.077,1.414,1.414,0,0,0,.264.016v.316h-.272c-.1-.009-.2-.009-.307-.009h-.3c-.1-.009-.2-.009-.263-.009h-.282c-.11,0-.221,0-.323.009s-.213,0-.315.009h-.282V9.111A1.376,1.376,0,0,0,139.9,9.1a.536.536,0,0,0,.222-.077.377.377,0,0,0,.152-.17.76.76,0,0,0,.052-.316Z" fill="#cecece"/>
      <path id="패스_331" data-name="패스 331" d="M147.789,4.65h-.272a1.338,1.338,0,0,0-.554-.844,1.943,1.943,0,0,0-1.072-.28,1.71,1.71,0,0,0-.9.229,2.21,2.21,0,0,0-.638.614,2.744,2.744,0,0,0-.392.859,3.814,3.814,0,0,0-.127.971,4.207,4.207,0,0,0,.127,1.022,2.945,2.945,0,0,0,.392.928,2.07,2.07,0,0,0,.656.673,1.545,1.545,0,0,0,.911.264,1.518,1.518,0,0,0,.51-.069.914.914,0,0,0,.3-.119V7.3a.9.9,0,0,0-.059-.332.6.6,0,0,0-.154-.169.835.835,0,0,0-.221-.078c-.085,0-.179-.007-.264-.007V6.395h.3c.111.009.23.009.357.009s.24.008.359.008h.289c.162,0,.332,0,.511-.008s.306,0,.409-.009v.316c-.06,0-.119.007-.179.007a.572.572,0,0,0-.179.078.453.453,0,0,0-.136.169.744.744,0,0,0-.06.332V8.421a1.569,1.569,0,0,0,.034.367.941.941,0,0,0,.069.272v.076c-.146.035-.29.086-.444.137s-.314.094-.468.145l-.51.1a3.747,3.747,0,0,1-.537.042,3.012,3.012,0,0,1-1.43-.314,2.732,2.732,0,0,1-.945-.8,2.891,2.891,0,0,1-.52-1.047,3.861,3.861,0,0,1-.162-1.082,3.674,3.674,0,0,1,.222-1.311,2.948,2.948,0,0,1,.6-1.03,2.74,2.74,0,0,1,.945-.681,2.919,2.919,0,0,1,1.209-.248,3.827,3.827,0,0,1,1.005.128c.307.094.613.188.919.273Z" fill="#cecece"/>
      <path id="패스_332" data-name="패스 332" d="M154.7,9.5h-.5l-4.121-5.065V7.817a4.493,4.493,0,0,0,.034.648.774.774,0,0,0,.127.392.438.438,0,0,0,.274.195,1.383,1.383,0,0,0,.459.059v.316c-.154,0-.34-.009-.545-.009-.221-.009-.4-.009-.553-.009h-.265c-.1,0-.195,0-.3.009s-.2,0-.3.009h-.264V9.111a1.968,1.968,0,0,0,.306-.016.453.453,0,0,0,.255-.119.738.738,0,0,0,.179-.3,1.851,1.851,0,0,0,.068-.563V4.429a.975.975,0,0,0-.229-.715,1.04,1.04,0,0,0-.69-.213V3.186c.1.008.23.008.4.008.153.008.29.008.409.008a1.841,1.841,0,0,0,.187-.008c.077,0,.162,0,.247-.008a2.175,2.175,0,0,0,.238-.009.55.55,0,0,0,.187-.026l3.874,4.76V4.454a1.1,1.1,0,0,0-.2-.732,1.036,1.036,0,0,0-.716-.221V3.186c.162.008.35.008.572.008s.4.008.57.008c.136,0,.3,0,.5-.008s.366-.008.5-.008V3.5a2.652,2.652,0,0,0-.29.017.476.476,0,0,0-.23.11.549.549,0,0,0-.145.247,1.583,1.583,0,0,0-.051.443Z" fill="#cecece"/>
      <path id="패스_333" data-name="패스 333" d="M158.783,7.436l.4-.038a1.907,1.907,0,0,0,.7,1.186,2.039,2.039,0,0,0,1.377.459,2.864,2.864,0,0,0,.714-.089,2.052,2.052,0,0,0,.651-.268,1.425,1.425,0,0,0,.484-.472,1.3,1.3,0,0,0,.179-.7,1.317,1.317,0,0,0-.306-.905,3.268,3.268,0,0,0-.753-.612c-.305-.179-.637-.345-.982-.511a4.065,4.065,0,0,1-.983-.6,2.9,2.9,0,0,1-.764-.892,2.624,2.624,0,0,1-.307-1.353,3.108,3.108,0,0,1,.23-1.263,1.989,1.989,0,0,1,.637-.8A2.606,2.606,0,0,1,161,.126,5.521,5.521,0,0,1,162.164,0a7.936,7.936,0,0,1,1.1.076,7.529,7.529,0,0,0,1.02.089l.115,1.748-.408.012a1.774,1.774,0,0,0-.6-.931,2.037,2.037,0,0,0-1.11-.281,3.127,3.127,0,0,0-.714.089,1.743,1.743,0,0,0-.574.294,1.252,1.252,0,0,0-.4.472,1.354,1.354,0,0,0-.141.65,1.39,1.39,0,0,0,.319.97,2.577,2.577,0,0,0,.779.638,6.746,6.746,0,0,0,1.007.523,7.307,7.307,0,0,1,1.021.6,3.293,3.293,0,0,1,.778.841,2.45,2.45,0,0,1,.306,1.289,2.656,2.656,0,0,1-.28,1.262,2.326,2.326,0,0,1-.741.829,3.5,3.5,0,0,1-1.046.46,6.232,6.232,0,0,1-1.2.127,6.166,6.166,0,0,1-.676-.05c-.243-.039-.472-.077-.689-.116s-.434-.1-.612-.152c-.2-.052-.369-.1-.5-.128Z" fill="#cecece"/>
      <path id="패스_334" data-name="패스 334" d="M170.18,4.479h-.306c0-.1-.008-.2-.017-.289a.968.968,0,0,0-.085-.238.485.485,0,0,0-.179-.162.872.872,0,0,0-.332-.06H168.3v4.8a.623.623,0,0,0,.06.315.3.3,0,0,0,.153.17.46.46,0,0,0,.221.077,1.337,1.337,0,0,0,.264.017v.315h-.273c-.1-.008-.2-.008-.306-.008h-.306c-.1-.009-.2-.009-.265-.009h-.28c-.112,0-.222,0-.325.009-.119,0-.22,0-.323.008h-.289V9.111a1.378,1.378,0,0,0,.264-.017.519.519,0,0,0,.229-.077.375.375,0,0,0,.154-.17.756.756,0,0,0,.051-.315V3.73h-.8a1.286,1.286,0,0,0-.367.043.423.423,0,0,0-.195.145.534.534,0,0,0-.1.229c-.026.1-.051.213-.069.332h-.3l.018-1.4h.323c.026.059.06.093.111.093a.944.944,0,0,0,.263.017h3.27c.23,0,.358-.034.392-.11h.332Z" fill="#cecece"/>
      <path id="패스_335" data-name="패스 335" d="M176.1,3.5a.679.679,0,0,0-.323.067.424.424,0,0,0-.188.213,1.024,1.024,0,0,0-.085.392c-.017.162-.017.358-.017.588V7.179a3.5,3.5,0,0,1-.136.979,2.176,2.176,0,0,1-.4.749,1.874,1.874,0,0,1-.656.486,2.436,2.436,0,0,1-.92.17,2.636,2.636,0,0,1-.885-.145,1.721,1.721,0,0,1-.681-.46,1.868,1.868,0,0,1-.443-.766,3.547,3.547,0,0,1-.154-1.107v-3a.859.859,0,0,0-.05-.323.579.579,0,0,0-.154-.171.97.97,0,0,0-.22-.076,2.637,2.637,0,0,0-.265-.017V3.186c.162.008.357.008.588.008s.408.008.57.008h.281c.1,0,.2,0,.324-.008.1,0,.212,0,.315-.008h.28V3.5a2.422,2.422,0,0,0-.263.017.751.751,0,0,0-.222.076.426.426,0,0,0-.153.171.714.714,0,0,0-.06.323V6.9a2.874,2.874,0,0,0,.35,1.55,1.112,1.112,0,0,0,1.021.571,1.176,1.176,0,0,0,.63-.162,1.266,1.266,0,0,0,.418-.409,1.986,1.986,0,0,0,.229-.587,3.6,3.6,0,0,0,.069-.681V4.786c0-.3-.009-.554-.027-.732a.887.887,0,0,0-.1-.374.34.34,0,0,0-.222-.146c-.1-.016-.229-.025-.383-.033V3.186c.145.008.324.008.537.008s.375.008.528.008c.119,0,.264,0,.433-.008s.316-.008.435-.008Z" fill="#cecece"/>
      <path id="패스_336" data-name="패스 336" d="M177.23,4.181a.947.947,0,0,0-.067-.383.716.716,0,0,0-.171-.205,1.012,1.012,0,0,0-.221-.076c-.086-.009-.171-.017-.239-.017V3.185a3.648,3.648,0,0,0,.443.017h.443c.144,0,.306,0,.485-.008s.392-.009.656-.009A4.009,4.009,0,0,1,180,3.432a3.32,3.32,0,0,1,1.047.681,3.232,3.232,0,0,1,.638,1,3.563,3.563,0,0,1,.213,1.209,4.194,4.194,0,0,1-.05.631,3.3,3.3,0,0,1-.2.68,3.506,3.506,0,0,1-.383.673,2.393,2.393,0,0,1-.63.571,3.38,3.38,0,0,1-.911.409,4.922,4.922,0,0,1-1.244.144c-.187,0-.348-.009-.485-.009s-.3-.008-.459-.008-.324,0-.494.008-.35,0-.5.009V9.111a2.742,2.742,0,0,0,.273-.042.414.414,0,0,0,.221-.086.338.338,0,0,0,.145-.179.827.827,0,0,0,.059-.306Zm.971,4.172a.8.8,0,0,0,.043.315.315.315,0,0,0,.119.179.238.238,0,0,0,.162.085.692.692,0,0,0,.2.018,2.1,2.1,0,0,0,.988-.213,1.828,1.828,0,0,0,.655-.563,2.509,2.509,0,0,0,.375-.834,4.638,4.638,0,0,0,.11-1,3.713,3.713,0,0,0-.153-1.107,2.665,2.665,0,0,0-.46-.843,2.38,2.38,0,0,0-.715-.545,2.465,2.465,0,0,0-.945-.187c-.119,0-.2.008-.238.008a.811.811,0,0,1-.137.017Z" fill="#cecece"/>
      <path id="패스_337" data-name="패스 337" d="M183.375,4.088a.855.855,0,0,0-.052-.323.587.587,0,0,0-.152-.171.987.987,0,0,0-.222-.076,2.445,2.445,0,0,0-.256-.017V3.186c.154.008.35.008.579.008s.41.008.571.008h.281c.1,0,.2,0,.315-.008s.213,0,.315-.008h.281V3.5a2.441,2.441,0,0,0-.264.017.744.744,0,0,0-.221.076.393.393,0,0,0-.145.171.7.7,0,0,0-.059.323V8.532a.628.628,0,0,0,.059.316.289.289,0,0,0,.145.17.456.456,0,0,0,.221.077,1.414,1.414,0,0,0,.264.016v.316h-.272c-.1-.009-.2-.009-.307-.009h-.3c-.1-.009-.2-.009-.263-.009h-.282c-.11,0-.221,0-.323.009s-.213,0-.315.009h-.282V9.111a1.376,1.376,0,0,0,.256-.016.536.536,0,0,0,.222-.077.377.377,0,0,0,.152-.17.76.76,0,0,0,.052-.316Z" fill="#cecece"/>
      <path id="패스_338" data-name="패스 338" d="M187.315,5.876h.809a.61.61,0,0,0,.323-.068.493.493,0,0,0,.187-.161.681.681,0,0,0,.085-.206,1.446,1.446,0,0,0,.018-.178H189a1.078,1.078,0,0,0-.009.178,2.069,2.069,0,0,0-.009.24c-.008.092-.008.186-.008.272v.238a4.426,4.426,0,0,0,.017.452c0,.187.009.34.009.461h-.264a1.635,1.635,0,0,0-.043-.393.521.521,0,0,0-.145-.2.713.713,0,0,0-.247-.085c-.1,0-.221-.009-.357-.009h-.63v1.7a2.289,2.289,0,0,0,.017.358.576.576,0,0,0,.059.264.276.276,0,0,0,.137.154.354.354,0,0,0,.229.059h.767a2.054,2.054,0,0,0,.417-.034.639.639,0,0,0,.3-.128.777.777,0,0,0,.222-.238c.059-.1.119-.231.187-.384l.289.026q-.051.294-.1.613c-.034.221-.068.418-.085.622h-.6c-.222-.009-.434-.009-.646-.009h-.648c-.222-.009-.426-.009-.613-.009h-.809c-.281,0-.553,0-.808.018V9.111a1.439,1.439,0,0,0,.374-.034.35.35,0,0,0,.213-.136.64.64,0,0,0,.111-.272,3.156,3.156,0,0,0,.025-.451v-4a2.11,2.11,0,0,0-.034-.375.517.517,0,0,0-.119-.213.613.613,0,0,0-.222-.094c-.1-.016-.213-.025-.348-.033V3.186c.238.016.485.016.74.016h1.975c.213,0,.426,0,.639-.008s.408,0,.6-.008V4.395l-.264.034a1,1,0,0,0-.281-.588,1.187,1.187,0,0,0-.732-.179h-.979Z" fill="#cecece"/>
      <path id="패스_339" data-name="패스 339" d="M190.539,8.014l.264-.026a1.274,1.274,0,0,0,.467.792,1.368,1.368,0,0,0,.92.306,1.9,1.9,0,0,0,.477-.059,1.385,1.385,0,0,0,.435-.179.961.961,0,0,0,.323-.315.866.866,0,0,0,.119-.468.879.879,0,0,0-.2-.6,2.207,2.207,0,0,0-.5-.409c-.205-.119-.426-.229-.656-.34a2.737,2.737,0,0,1-.656-.4,1.917,1.917,0,0,1-.51-.6,1.736,1.736,0,0,1-.205-.9,2.058,2.058,0,0,1,.154-.843,1.307,1.307,0,0,1,.426-.536,1.686,1.686,0,0,1,.629-.3,3.605,3.605,0,0,1,.775-.086,5.4,5.4,0,0,1,.732.052,4.925,4.925,0,0,0,.681.059l.077,1.166-.272.009a1.179,1.179,0,0,0-.4-.621,1.353,1.353,0,0,0-.74-.187,2.106,2.106,0,0,0-.478.059,1.173,1.173,0,0,0-.382.195.863.863,0,0,0-.264.316.905.905,0,0,0-.094.434.929.929,0,0,0,.213.647,1.707,1.707,0,0,0,.52.426,4.461,4.461,0,0,0,.672.349,4.9,4.9,0,0,1,.681.4,2.2,2.2,0,0,1,.52.562,1.639,1.639,0,0,1,.2.86,1.767,1.767,0,0,1-.188.843,1.549,1.549,0,0,1-.494.553,2.325,2.325,0,0,1-.7.307,4.2,4.2,0,0,1-.8.085,4.026,4.026,0,0,1-.451-.034c-.162-.026-.315-.051-.46-.077s-.289-.068-.408-.1c-.137-.034-.247-.067-.332-.085Z" fill="#cecece"/>
    </g>
  </g>
</svg>
